<?xml version="1.0" encoding="UTF-8"?>
<svg version="1.1" xmlns="http://www.w3.org/2000/svg" width="1024" height="1024">
<path d="M0 0 C337.92 0 675.84 0 1024 0 C1024 337.92 1024 675.84 1024 1024 C686.08 1024 348.16 1024 0 1024 C0 686.08 0 348.16 0 0 Z " fill="#17283C" transform="translate(0,0)"/>
<path d="M0 0 C32.64779272 28.08787791 53.71649501 68.12771497 58.13549805 111.08227539 C61.37937892 156.03694832 50.35135242 202.16070714 20.98144531 237.18115234 C16.63174023 242.19105232 12.00535242 246.9004093 7.31640625 251.58935547 C6.67960937 252.27255859 6.0428125 252.95576172 5.38671875 253.65966797 C-21.27011867 281.8152834 -63.63156771 298.26077693 -101.9621582 299.71362305 C-149.28049657 300.76254373 -194.03342412 287.78146002 -229.26171875 254.91748047 C-230.0609375 254.14919922 -230.86015625 253.38091797 -231.68359375 252.58935547 C-232.15216797 252.1465625 -232.62074219 251.70376953 -233.10351562 251.24755859 C-260.61546966 225.16665548 -278.69367691 189.15806822 -283.68359375 151.58935547 C-283.85415283 150.50493164 -284.02471191 149.42050781 -284.20043945 148.30322266 C-289.77333657 105.46597611 -277.37431821 60.42838881 -251.22265625 26.22167969 C-246.3636806 20.03115783 -241.14701065 14.25174355 -235.68359375 8.58935547 C-234.94753906 7.80173828 -234.21148437 7.01412109 -233.453125 6.20263672 C-171.73085646 -58.21787307 -65.77158043 -55.10849648 0 0 Z " fill="#E54F34" transform="translate(630.68359375,151.41064453125)"/>
<path d="M0 0 C12.45829661 10.60638766 20.86640191 25.5199721 22.48974609 41.93115234 C23.68138312 58.64038451 19.50058562 74.44225798 9.03515625 87.7734375 C-1.56724338 100.00187025 -16.21202703 109.52378757 -32.7109375 110.90234375 C-52.84687782 112.03897335 -70.64439966 108.5981216 -86.40234375 95.1171875 C-100.02876502 82.04412344 -106.54006042 66.28528302 -107.1484375 47.46484375 C-106.73317867 30.07813717 -99.66596674 15.3099293 -87.7109375 2.90234375 C-62.4458818 -19.02438628 -26.42636346 -20.4480651 0 0 Z " fill="#FAEED5" transform="translate(451.7109375,678.09765625)"/>
<path d="M0 0 C74.11363636 0 74.11363636 0 87.75 12 C97.75573364 22.75495524 99.60186766 35.84264957 99.13183594 49.86816406 C98.43320991 61.16520574 91.91216509 70.78270226 83.89453125 78.37109375 C78.51079137 83 78.51079137 83 75 83 C82.43019427 96.80650053 90.02077711 110.43913533 98.33203125 123.734375 C98.70682617 124.33628662 99.08162109 124.93819824 99.46777344 125.55834961 C100.49538543 127.20495803 101.53063374 128.84679382 102.56640625 130.48828125 C104 133 104 133 104 135 C99.5529579 135.24828873 95.10963106 135.42909832 90.65771484 135.54931641 C89.14593236 135.59943968 87.63463087 135.66756841 86.12451172 135.75439453 C73.66995716 136.45224367 73.66995716 136.45224367 69.84643555 133.12719727 C68.23763854 130.48744939 67.11909861 127.87989108 66 125 C65.03054726 123.13980516 64.0418865 121.28950613 63.03515625 119.44921875 C62.0412086 117.53022883 61.0503831 115.60961894 60.0625 113.6875 C59.01770944 111.66626207 57.97214047 109.64542631 56.92578125 107.625 C56.17675537 106.17867187 56.17675537 106.17867187 55.41259766 104.703125 C53.04617328 100.17477196 50.58819211 95.69824149 48.109375 91.23046875 C47 89 47 89 47 87 C41.06 87 35.12 87 29 87 C29 102.51 29 118.02 29 134 C19.43 134 9.86 134 0 134 C0 89.78 0 45.56 0 0 Z " fill="#FBEFD7" transform="translate(304,496)"/>
<path d="M0 0 C66.96428571 0 66.96428571 0 76.7578125 8.53125 C82.2607572 14.39368355 85.17686938 21.47710974 85.4375 29.5 C84.94843271 40.02235678 81.74122812 46.78471519 74 54 C73.01 54.495 73.01 54.495 72 55 C72.50789062 55.35191406 73.01578125 55.70382812 73.5390625 56.06640625 C82.42827978 62.44200591 88.13543888 68.96113814 90 80 C90.81829425 90.24441454 89.2909445 99.12179296 82.65625 107.1875 C76.14604257 114.31187794 69.35529654 117.66117586 60 120 C40.2 120 20.4 120 0 120 C0 80.4 0 40.8 0 0 Z " fill="#FBEFD6" transform="translate(615,666)"/>
<path d="M0 0 C67.51113014 0 67.51113014 0 80.875 12.375 C84.13780955 15.85277112 86.25665578 19.57967224 88 24 C88.35707031 24.88171875 88.71414063 25.7634375 89.08203125 26.671875 C91.98334991 37.1906984 91.25955701 50.41482601 86 60 C82.28138815 66.34085486 77.18155154 71.04380702 71 75 C70.34 75 69.68 75 69 75 C75.93883847 87.41153482 82.93692204 99.76695683 90.39160156 111.87792969 C90.86694336 112.6568457 91.34228516 113.43576172 91.83203125 114.23828125 C92.25202393 114.91930908 92.6720166 115.60033691 93.10473633 116.30200195 C94 118 94 118 94 120 C89.45969019 120.29110292 84.92177372 120.4682147 80.375 120.625 C79.08980469 120.70878906 77.80460937 120.79257812 76.48046875 120.87890625 C67.22915984 121.11857747 67.22915984 121.11857747 64 118.17993164 C62.38116174 115.52870925 61.19547771 112.86654056 60 110 C58.8950432 107.90227486 57.77463673 105.81263053 56.640625 103.73046875 C55.50713467 101.55118306 54.37695773 99.370171 53.25 97.1875 C52.67378906 96.08212891 52.09757812 94.97675781 51.50390625 93.83789062 C49.12893665 89.25680124 46.91960667 84.79901667 45 80 C38.73 80 32.46 80 26 80 C26 93.2 26 106.4 26 120 C17.42 120 8.84 120 0 120 C0 80.4 0 40.8 0 0 Z " fill="#FAEED5" transform="translate(238,666)"/>
<path d="M0 0 C27.06 0 54.12 0 82 0 C82 8.91 82 17.82 82 27 C64.51 27 47.02 27 29 27 C29 35.91 29 44.82 29 54 C44.51 54 60.02 54 76 54 C76 62.25 76 70.5 76 79 C60.49 79 44.98 79 29 79 C29 88.57 29 98.14 29 108 C46.82 108 64.64 108 83 108 C83 116.91 83 125.82 83 135 C41.915 134.505 41.915 134.505 0 134 C0 89.78 0 45.56 0 0 Z " fill="#FBEFD7" transform="translate(543,496)"/>
<path d="M0 0 C27.06 0 54.12 0 82 0 C82 8.91 82 17.82 82 27 C64.18 27 46.36 27 28 27 C28 35.91 28 44.82 28 54 C43.51 54 59.02 54 75 54 C75 62.25 75 70.5 75 79 C59.49 79 43.98 79 28 79 C28 88.57 28 98.14 28 108 C45.82 108 63.64 108 82 108 C82 116.91 82 125.82 82 135 C54.94 134.67 27.88 134.34 0 134 C0 89.78 0 45.56 0 0 Z " fill="#FBEFD7" transform="translate(432,496)"/>
<path d="M0 0 C8.58 0 17.16 0 26 0 C26.01458252 2.40659912 26.02916504 4.81319824 26.04418945 7.29272461 C26.09465451 15.26759593 26.16127037 23.24227444 26.23571491 31.21695614 C26.28033426 36.04932405 26.31960879 40.88160929 26.34643555 45.71411133 C26.37255291 50.38270107 26.41301443 55.05097125 26.46318626 59.71936226 C26.47979813 61.49538747 26.49134763 63.27146789 26.49761391 65.04755974 C26.07601076 79.37616734 26.07601076 79.37616734 31.68359375 92.12109375 C32.26238281 92.55550781 32.84117187 92.98992187 33.4375 93.4375 C34.01371094 93.88996094 34.58992187 94.34242188 35.18359375 94.80859375 C41.22468392 98.77102924 46.87582737 98.74535139 54 98 C56.73303931 96.94883103 58.59047886 95.71343725 61 94 C61.66 94 62.32 94 63 94 C68.33322832 83.48221328 68.47102096 73.93758601 68.51171875 62.40234375 C68.52858469 60.59915458 68.54673748 58.79597703 68.56611633 56.99281311 C68.61341464 52.27307772 68.64335404 47.55338946 68.66955566 42.83349609 C68.69946348 38.0067413 68.74595847 33.18014857 68.79101562 28.35351562 C68.87681915 18.90241036 68.94273077 9.45132129 69 0 C77.58 0 86.16 0 95 0 C95.09072445 10.98847536 95.16395907 21.97669795 95.20724869 32.96546459 C95.22803584 38.06916009 95.25618958 43.17258387 95.30175781 48.27612305 C95.34553429 53.21042324 95.36920365 58.1444637 95.37950897 63.07894325 C95.38684369 64.95222366 95.40116506 66.82549145 95.42292023 68.6986599 C95.59870019 84.47531042 94.24421688 98.05163378 83 110.15234375 C72.10791556 120.59707472 59.13839225 123.41054273 44.46386719 123.36865234 C31.94980442 123.02856624 20.83664945 118.39928803 11.6796875 109.828125 C2.69800327 100.21672859 -0.34804749 90.07105939 -0.22705078 77.08374023 C-0.22734283 76.24361893 -0.22763489 75.40349762 -0.22793579 74.53791809 C-0.22655601 71.79470038 -0.21105934 69.05176329 -0.1953125 66.30859375 C-0.19157755 64.39331714 -0.18873286 62.47803861 -0.18673706 60.5627594 C-0.17913855 55.54701364 -0.1595229 50.53138561 -0.1373291 45.51568604 C-0.11678881 40.38742668 -0.10771791 35.2591481 -0.09765625 30.13085938 C-0.07627313 20.08717981 -0.04112218 10.04361816 0 0 Z " fill="#FAEDD3" transform="translate(493,666)"/>
<path d="M0 0 C10.50370041 7.10169218 16.79524841 16.11501767 20.7578125 28.12890625 C23.03968598 40.75988269 21.00932866 53.80677683 13.95703125 64.58203125 C7.42354239 73.12689141 0.23057178 78.54011207 -9.85546875 82.26953125 C-10.5103125 82.51574219 -11.16515625 82.76195312 -11.83984375 83.015625 C-22.58572354 86.34501083 -34.4038847 84.87401842 -44.375 80.05078125 C-55.9239306 73.66427585 -64.19176356 64.18835103 -67.98828125 51.4765625 C-70.71713894 39.72627574 -69.83432271 27.80745854 -63.85546875 17.26953125 C-63.16904297 16.03976563 -63.16904297 16.03976563 -62.46875 14.78515625 C-56.4293666 4.92358774 -47.10994034 -2.00926587 -35.95825195 -5.28833008 C-23.76576904 -7.85196488 -10.59555645 -6.42111013 0 0 Z " fill="#17283C" transform="translate(633.85546875,217.73046875)"/>
<path d="M0 0 C7.15231657 6.59562188 13.85733616 16.11172707 14.7355957 26.07421875 C15.20669164 42.35048961 13.1731618 54.62120597 1.75 67.03125 C-8.21121353 76.49543832 -20.79979824 80.66693904 -34.33203125 80.375 C-46.96331624 79.12139257 -58.57640806 72.33915099 -66.65234375 62.66796875 C-74.47069184 51.29892982 -76.67160785 39.56845544 -75.44140625 26.06640625 C-74.5800794 22.10922459 -73.24251779 18.68546214 -71.44140625 15.06640625 C-71.01730469 14.20402344 -70.59320312 13.34164063 -70.15625 12.453125 C-63.98418081 1.12333782 -54.14106232 -5.66898459 -42.02734375 -9.74609375 C-27.13799485 -13.53419665 -11.91950944 -9.44025148 0 0 Z " fill="#17283C" transform="translate(601.44140625,327.93359375)"/>
<path d="M0 0 C8.47369567 6.98758378 14.96420071 16.28964238 16.69140625 27.28515625 C17.91806946 41.03911755 15.52943815 53.44411245 6.69140625 64.28515625 C6.1396875 64.97222656 5.58796875 65.65929687 5.01953125 66.3671875 C-2.9232303 75.24339325 -14.71120924 80.3324747 -26.43359375 81.49609375 C-39.09200816 82.08380585 -49.9818637 77.10049728 -59.49609375 69.16015625 C-64.50627624 64.47672479 -67.53992322 59.51694933 -70.30859375 53.28515625 C-70.64761719 52.59164062 -70.98664063 51.898125 -71.3359375 51.18359375 C-75.02635692 42.37420546 -74.73870915 30.33404171 -71.68359375 21.34765625 C-70.94028466 19.63830434 -70.14846093 17.94919215 -69.30859375 16.28515625 C-68.67244141 14.99351562 -68.67244141 14.99351562 -68.0234375 13.67578125 C-61.88223728 2.38555243 -51.87650979 -4.80530203 -39.63671875 -8.52734375 C-25.30686236 -11.73153524 -11.77764425 -8.74853777 0 0 Z " fill="#17283C" transform="translate(492.30859375,326.71484375)"/>
<path d="M0 0 C1.27230469 0.76376953 1.27230469 0.76376953 2.5703125 1.54296875 C13.95835424 8.9706915 20.80099406 18.76710758 24 32 C25.26168304 45.99587936 23.10523766 58.86409783 14 70 C5.87056182 79.44927638 -4.39628901 85.14823261 -16.90625 86.38671875 C-31.80785883 87.0358588 -42.83580685 82.3724702 -53.80859375 72.34765625 C-62.82431598 62.76991497 -66.55066505 50.28743377 -66.3125 37.44140625 C-65.20087306 25.19961457 -59.82506864 15.0143782 -50.97265625 6.62890625 C-37.54284341 -4.46066198 -15.7063792 -9.47413265 0 0 Z " fill="#17283C" transform="translate(446,216)"/>
<path d="M0 0 C24.42 0 48.84 0 74 0 C74 7.92 74 15.84 74 24 C58.16 24 42.32 24 26 24 C26 31.92 26 39.84 26 48 C40.19 48 54.38 48 69 48 C69 55.59 69 63.18 69 71 C54.81 71 40.62 71 26 71 C26 79.58 26 88.16 26 97 C42.17 97 58.34 97 75 97 C75 104.59 75 112.18 75 120 C50.25 120 25.5 120 0 120 C0 80.4 0 40.8 0 0 Z " fill="#FBEED4" transform="translate(816,666)"/>
<path d="M0 0 C9.09213859 7.55152622 14.85849653 15.66422523 18 27 C18.226875 27.804375 18.45375 28.60875 18.6875 29.4375 C20.33725815 42.96551686 17.08834789 54.99254911 9 66 C1.38337772 74.4345146 -8.62308176 81.04707397 -20.17895508 82.22143555 C-29.62259073 82.68967375 -38.64433278 82.95207433 -47 78 C-47.77472656 77.55269531 -48.54945313 77.10539062 -49.34765625 76.64453125 C-60.50949042 69.6940068 -66.86360367 60.40918899 -71 48 C-72.322841 33.74848137 -71.28363012 21.99732097 -62.6875 10.1875 C-46.2884358 -9.35707435 -21.78772603 -13.78754538 0 0 Z " fill="#17283C" transform="translate(544,150)"/>
<path d="M0 0 C9.57 0 19.14 0 29 0 C29 34.98 29 69.96 29 106 C46.49 106 63.98 106 82 106 C82 115.24 82 124.48 82 134 C54.94 134 27.88 134 0 134 C0 89.78 0 45.56 0 0 Z " fill="#FCEED4" transform="translate(655,496)"/>
<path d="M0 0 C8.84973767 6.17716732 13.61504654 13.84513961 17 24 C18.02632475 35.7001021 18.30048132 46.97087448 11.01171875 56.63671875 C6.60344361 61.85203563 2.11817852 65.95329572 -4 69 C-5.134375 69.598125 -6.26875 70.19625 -7.4375 70.8125 C-17.12298807 74.11741013 -29.19821397 73.10500898 -38.28125 68.67578125 C-49.31886521 61.8724236 -55.47558124 53.24593922 -58.4921875 40.74609375 C-60.30530683 30.94130231 -58.56529547 21.44787479 -53.71484375 12.67578125 C-41.31509962 -4.90491446 -19.0538561 -11.83227799 0 0 Z " fill="#17273A" transform="translate(430,693)"/>
<path d="M0 0 C29.37 0 58.74 0 89 0 C89 7.59 89 15.18 89 23 C78.44 23 67.88 23 57 23 C57 55.01 57 87.02 57 120 C48.75 120 40.5 120 32 120 C32 87.99 32 55.98 32 23 C21.44 23 10.88 23 0 23 C0 15.41 0 7.82 0 0 Z " fill="#FBEFD7" transform="translate(132,666)"/>
<path d="M0 0 C8.58 0 17.16 0 26 0 C26 32.01 26 64.02 26 97 C41.51 97 57.02 97 73 97 C72.67 104.59 72.34 112.18 72 120 C48.24 120 24.48 120 0 120 C0 80.4 0 40.8 0 0 Z " fill="#FCEFD7" transform="translate(726,666)"/>
<path d="M0 0 C3.49475219 3.44464821 6.83501118 6.98146014 10.125 10.625 C15.56293496 16.61133767 21.2316759 22.3320916 27 28 C15.50642543 43.9778101 1.07980894 57.68879154 -18.62109375 62.53515625 C-28.42157757 63.8834309 -47.09518984 66.11106687 -55.45385742 59.92382812 C-57.72072168 57.1032233 -58.61559341 53.88821667 -59.69921875 50.48828125 C-59.9391304 49.76005661 -60.17904205 49.03183197 -60.42622375 48.28153992 C-61.18849564 45.961212 -61.93812699 43.63702192 -62.6875 41.3125 C-63.20294722 39.73605688 -63.71921388 38.15988145 -64.23632812 36.58398438 C-65.50040555 32.72569481 -66.75316413 28.86389404 -68 25 C-66.70578125 25.15855469 -65.4115625 25.31710937 -64.078125 25.48046875 C-51.25931945 26.89113871 -39.08761291 27.01193706 -27 22 C-26.25621094 21.69964844 -25.51242187 21.39929688 -24.74609375 21.08984375 C-15.13197574 16.74373561 -5.92816509 8.71788984 0 0 Z " fill="#E54F34" transform="translate(361,384)"/>
<path d="M0 0 C1.28197266 0.10054687 1.28197266 0.10054687 2.58984375 0.203125 C5.39779789 0.82415751 6.90472229 1.88760254 9.0625 3.75 C9.3925 2.76 9.7225 1.77 10.0625 0.75 C12.7025 0.75 15.3425 0.75 18.0625 0.75 C18.16205505 5.99693388 18.2342896 11.24330697 18.28222656 16.4909668 C18.30222905 18.27263986 18.32944023 20.05424823 18.36425781 21.83569336 C18.74052152 41.59507151 18.74052152 41.59507151 14.0625 47.75 C8.59941834 52.30256805 3.6080716 53.15677198 -3.328125 53.10546875 C-7.56609013 52.52814116 -10.74278294 50.52971705 -13.9375 47.75 C-15.9375 44.75 -15.9375 44.75 -15.9375 41.75 C-13.9575 40.76 -11.9775 39.77 -9.9375 38.75 C-9.298125 39.575 -8.65875 40.4 -8 41.25 C-4.3979219 44.19047192 -2.61517115 44.5058784 1.90234375 44.234375 C5.52220907 43.4226873 7.03131409 41.7640178 9.0625 38.75 C9.48140218 35.53938212 9.48140218 35.53938212 9.0625 32.75 C8.27875 33.41 7.495 34.07 6.6875 34.75 C2.40375661 37.59229419 -1.97186423 37.54385368 -6.9375 36.75 C-11.81429522 34.35760989 -14.74705604 31.03431045 -17.9375 26.75 C-19.83945321 21.04414036 -19.84002212 14.97853262 -17.375 9.4375 C-13.64532992 2.85729636 -7.51528677 -0.67807099 0 0 Z " fill="#F8F1DD" transform="translate(556.9375,840.25)"/>
<path d="M0 0 C3.0625 1.5625 3.0625 1.5625 5 3 C5.33 2.01 5.66 1.02 6 0 C8.64 0 11.28 0 14 0 C14.07448116 5.28357911 14.12875795 10.56684863 14.16479492 15.85083008 C14.17982716 17.64613167 14.20025857 19.44139688 14.22631836 21.23657227 C14.26294786 23.82577526 14.2797821 26.41449028 14.29296875 29.00390625 C14.30845261 29.79898087 14.32393646 30.59405548 14.33988953 31.41322327 C14.3416777 37.41286809 13.36709247 42.29936268 9.28125 46.9609375 C8.6934375 47.42757812 8.105625 47.89421875 7.5 48.375 C6.9121875 48.85710938 6.324375 49.33921875 5.71875 49.8359375 C1.08682912 52.97301119 -4.64969846 52.66332076 -10 52 C-14.44604907 50.14867088 -17.32891817 48.00662275 -20 44 C-20 43.01 -20 42.02 -20 41 C-18.02 40.01 -16.04 39.02 -14 38 C-13.360625 38.825 -12.72125 39.65 -12.0625 40.5 C-8.4604219 43.44047192 -6.67767115 43.7558784 -2.16015625 43.484375 C1.45970907 42.6726873 2.96881409 41.0140178 5 38 C5.41890218 34.78938212 5.41890218 34.78938212 5 32 C4.030625 32.66 3.06125 33.32 2.0625 34 C-2.26570359 36.45323281 -6.11872419 36.87452473 -11 36 C-16.50506663 33.24746668 -21.02754875 28.91735374 -23 23 C-23.75336798 16.33807461 -23.48788095 11.18490314 -19.5 5.65625 C-13.73330732 -0.71113984 -7.97339529 -1.63377802 0 0 Z " fill="#F6EEDC" transform="translate(517,841)"/>
<path d="M0 0 C4.88207207 2.8334364 8.13374797 7.51749594 10.625 12.5 C11.31407285 20.00105012 11.75076241 26.74475477 7.0546875 32.953125 C3.14426444 37.18407454 -0.74780509 40.15974063 -6.51171875 40.90625 C-13.76903256 41.09786225 -18.7910416 40.79115131 -24.6015625 36.22265625 C-29.59263803 31.37449697 -31.51983828 26.65446378 -31.625 19.6875 C-31.55458224 13.19341739 -30.33372412 9.6596189 -25.9375 4.8125 C-18.58266562 -1.82478956 -9.53784608 -4.18779702 0 0 Z " fill="#17283C" transform="translate(527.375,259.5)"/>
<path d="M0 0 C6.6825 -0.12375 6.6825 -0.12375 13.5 -0.25 C15.58344727 -0.30462402 15.58344727 -0.30462402 17.70898438 -0.36035156 C24.97269282 -0.42531837 29.88414937 -0.03793511 36 4 C39.73882169 7.93560178 42.28275006 11.73634469 42.3125 17.25 C42.1640054 22.56086554 41.24281843 27.46071707 37.640625 31.5390625 C32.53861331 36.03619652 28.06160134 37.25627033 21.38671875 37.1953125 C20.26225342 37.19031738 19.13778809 37.18532227 17.97924805 37.18017578 C16.56297119 37.16196777 15.14669434 37.14375977 13.6875 37.125 C9.170625 37.08375 4.65375 37.0425 0 37 C0 24.79 0 12.58 0 0 Z " fill="#152538" transform="translate(333,522)"/>
<path d="M0 0 C8 0 8 0 9.86962891 1.77880859 C10.27616699 2.60203613 10.68270508 3.42526367 11.1015625 4.2734375 C11.57754883 5.18706055 12.05353516 6.10068359 12.54394531 7.04199219 C13.02444336 8.01813477 13.50494141 8.99427734 14 10 C15.06374774 11.93331411 16.13412786 13.862993 17.2109375 15.7890625 C18.26820357 17.73297477 19.32243398 19.6785388 20.375 21.625 C22.23125 25.04875 24.0875 28.4725 26 32 C31.61 21.44 37.22 10.88 43 0 C45.97 0 48.94 0 52 0 C52 16.5 52 33 52 50 C49.36 50 46.72 50 44 50 C43.67 39.44 43.34 28.88 43 18 C41.80375 20.413125 40.6075 22.82625 39.375 25.3125 C36.06546031 31.95946493 32.62520912 38.51856552 29 45 C27.02 45 25.04 45 23 45 C21.04051325 41.41729624 19.08261173 37.83372858 17.125 34.25 C16.56941406 33.23421875 16.01382813 32.2184375 15.44140625 31.171875 C14.90644531 30.1921875 14.37148437 29.2125 13.8203125 28.203125 C13.32805176 27.30239258 12.83579102 26.40166016 12.32861328 25.47363281 C11.18048846 23.33603622 10.08512762 21.17025525 9 19 C8.67 29.23 8.34 39.46 8 50 C5.36 50 2.72 50 0 50 C0 33.5 0 17 0 0 Z " fill="#F8EFDB" transform="translate(207,827)"/>
<path d="M0 0 C3.96 -0.061875 7.92 -0.12375 12 -0.1875 C13.23234375 -0.21481201 14.4646875 -0.24212402 15.734375 -0.27026367 C22.22548865 -0.31913621 27.14390902 0.11995526 33 3 C36.80074912 6.90076883 39.28311526 10.79796441 39.3125 16.3125 C39.16301661 21.99286891 37.76745901 26.27905307 33.625 30.3125 C28.96772189 33.3064645 25.36051256 34.24985727 19.82421875 34.1953125 C18.25933716 34.18781982 18.25933716 34.18781982 16.6628418 34.18017578 C15.350979 34.16196777 14.03911621 34.14375977 12.6875 34.125 C8.500625 34.08375 4.31375 34.0425 0 34 C0 22.78 0 11.56 0 0 Z " fill="#162537" transform="translate(264,689)"/>
<path d="M0 0 C4.14209674 2.93789955 7.28721191 6.52179198 8.89453125 11.34375 C9.63724793 18.19865973 8.94695748 23.6598275 4.89453125 29.34375 C0.41555634 33.7078794 -4.18308331 35.62785919 -10.41796875 35.78125 C-16.12892637 35.66579937 -19.8774051 34.17293972 -24.10546875 30.34375 C-28.94741551 24.13612594 -29.74127457 19.00940886 -29.10546875 11.34375 C-27.04422389 5.03876572 -22.31482734 1.15415741 -16.66796875 -2.03125 C-10.3849121 -3.56370284 -5.60787084 -3.09704898 0 0 Z " fill="#F8F0DC" transform="translate(295.10546875,842.65625)"/>
<path d="M0 0 C4.61494896 2.81399327 7.70795084 7.02304239 9.08203125 12.26953125 C9.65294267 19.34883291 8.23541279 24.00233167 4.26953125 30.01953125 C-0.05976385 34.4725205 -3.82766483 35.47116864 -9.91796875 35.64453125 C-15.62223458 35.46847366 -19.41448972 34.77301028 -23.5703125 30.6171875 C-28.36571116 25.28019088 -29.29131924 21.26965107 -29.1875 14.125 C-28.78172501 9.82613747 -27.66294918 6.62281759 -24.91796875 3.26953125 C-17.00551949 -3.11455759 -9.28206002 -4.47499657 0 0 Z " fill="#F6EEDB" transform="translate(731.91796875,842.73046875)"/>
<path d="M0 0 C6.1875 -0.0928125 6.1875 -0.0928125 12.5 -0.1875 C13.78455078 -0.21481201 15.06910156 -0.24212402 16.39257812 -0.27026367 C22.99200517 -0.31800377 28.05657269 0.0388119 34 3 C38.53862312 7.77137302 39.37684851 11.0338738 39.265625 17.45703125 C38.85769316 21.3623787 37.76990362 23.23009638 35 26 C27.85151522 29.69244883 20.27625246 29.35535655 12.4375 29.1875 C8.333125 29.125625 4.22875 29.06375 0 29 C0 19.43 0 9.86 0 0 Z " fill="#152436" transform="translate(640,735)"/>
<path d="M0 0 C5.1064374 2.09799366 7.53407856 5.44857072 10.1875 10.25 C10.875 12.875 10.875 12.875 10.875 20.875 C1.965 20.875 -6.945 20.875 -16.125 20.875 C-13.81086764 26.4804488 -13.81086764 26.4804488 -11.4375 28.3125 C-7.87138676 29.17993295 -4.64133947 28.90540276 -1.125 27.875 C1.35934151 25.97973223 1.35934151 25.97973223 2.875 23.875 C5.185 24.535 7.495 25.195 9.875 25.875 C9.58849017 29.31311794 9.14066773 30.61671193 6.625 33.0625 C0.48851747 37.10699985 -4.92025355 37.53384112 -12.125 36.875 C-17.57370404 35.12730248 -20.91041808 31.48221838 -24.125 26.875 C-25.96366817 21.35899549 -26.23512241 14.96641712 -24.25390625 9.44921875 C-21.43412873 4.54003232 -18.19144506 2.26483258 -13.125 -0.125 C-8.92991379 -2.22254311 -4.3228035 -1.39181173 0 0 Z " fill="#F9F1DE" transform="translate(387.125,841.125)"/>
<path d="M0 0 C4.02124276 -0.08120685 8.04083232 -0.1406066 12.0625 -0.1875 C13.7630957 -0.22520508 13.7630957 -0.22520508 15.49804688 -0.26367188 C21.78283187 -0.31864084 26.50451544 -0.17516886 32 3 C34.95751117 6.33912551 35.59966685 9.54096529 35.4140625 14.00390625 C34.6574663 17.65127097 32.68391169 19.54947194 30 22 C24.16517926 24.80374503 17.94247314 24.22098957 11.625 24.125 C5.870625 24.063125 5.870625 24.063125 0 24 C0 16.08 0 8.16 0 0 Z " fill="#152436" transform="translate(640,689)"/>
<path d="M0 0 C2.97 0 5.94 0 9 0 C9.01981934 0.74161377 9.03963867 1.48322754 9.06005859 2.24731445 C9.15522928 5.60273834 9.26494094 8.95753286 9.375 12.3125 C9.4059375 13.47974609 9.436875 14.64699219 9.46875 15.84960938 C9.50742187 16.96787109 9.54609375 18.08613281 9.5859375 19.23828125 C9.6173584 20.26993408 9.6487793 21.30158691 9.68115234 22.36450195 C9.82674629 25.22843236 9.82674629 25.22843236 12 28 C16.58340987 28.57470019 16.58340987 28.57470019 20.69067383 26.83666992 C22.51666508 24.27524308 22.43233558 22.36597826 22.51171875 19.23828125 C22.54716797 18.12001953 22.58261719 17.00175781 22.61914062 15.84960938 C22.64169922 14.68236328 22.66425781 13.51511719 22.6875 12.3125 C22.72166016 11.13365234 22.75582031 9.95480469 22.79101562 8.74023438 C22.87357925 5.82691775 22.94270322 2.91390534 23 0 C25.97 0 28.94 0 32 0 C32 11.88 32 23.76 32 36 C29.03 36 26.06 36 23 36 C22.67 35.34 22.34 34.68 22 34 C21.360625 34.495 20.72125 34.99 20.0625 35.5 C15.9364883 37.52090369 12.51523185 37.8426313 8 37 C4.43432432 35.23227096 2.38096073 32.92509775 0.85205078 29.21240234 C-0.02806982 25.89417115 -0.22922808 23.15203597 -0.1953125 19.7265625 C-0.18886719 18.57285156 -0.18242187 17.41914062 -0.17578125 16.23046875 C-0.15902344 15.04066406 -0.14226562 13.85085938 -0.125 12.625 C-0.11597656 11.41199219 -0.10695313 10.19898438 -0.09765625 8.94921875 C-0.07416588 5.96594227 -0.04131682 2.98307406 0 0 Z " fill="#F5EAD5" transform="translate(455,841)"/>
<path d="M0 0 C4.08307314 2.4324691 5.57244932 4.5409756 7 9 C7.22705078 12.04614258 7.22705078 12.04614258 7.1953125 15.39453125 C7.18886719 16.59658203 7.18242188 17.79863281 7.17578125 19.03710938 C7.15902344 20.28298828 7.14226563 21.52886719 7.125 22.8125 C7.11597656 24.07771484 7.10695313 25.34292969 7.09765625 26.64648438 C7.07412394 29.76451564 7.04124545 32.88216097 7 36 C4.03 36 1.06 36 -2 36 C-2.01458252 35.25838623 -2.02916504 34.51677246 -2.04418945 33.75268555 C-2.11859457 30.39709369 -2.21528006 27.04250506 -2.3125 23.6875 C-2.33505859 22.52025391 -2.35761719 21.35300781 -2.38085938 20.15039062 C-2.41630859 19.03212891 -2.45175781 17.91386719 -2.48828125 16.76171875 C-2.51446533 15.73006592 -2.54064941 14.69841309 -2.56762695 13.63549805 C-2.80605554 10.98932476 -2.80605554 10.98932476 -4.30932617 9.13208008 C-6.1547566 7.65754977 -6.1547566 7.65754977 -9.5625 8.125 C-13.25442394 8.65633933 -13.25442394 8.65633933 -15 12 C-15.36749389 14.61289494 -15.36749389 14.61289494 -15.4140625 17.54296875 C-15.47207031 19.15268555 -15.47207031 19.15268555 -15.53125 20.79492188 C-15.57765625 22.47424805 -15.57765625 22.47424805 -15.625 24.1875 C-15.68300781 25.88422852 -15.68300781 25.88422852 -15.7421875 27.61523438 C-15.83652533 30.4099925 -15.92211652 33.20474278 -16 36 C-18.97 36 -21.94 36 -25 36 C-25 24.12 -25 12.24 -25 0 C-22.03 0 -19.06 0 -16 0 C-15.67 0.99 -15.34 1.98 -15 3 C-14.195625 2.319375 -13.39125 1.63875 -12.5625 0.9375 C-8.43303303 -1.81221616 -4.62825371 -1.3321173 0 0 Z " fill="#FBF3E0" transform="translate(772,841)"/>
<path d="M0 0 C1.18851563 0.00902344 2.37703125 0.01804687 3.6015625 0.02734375 C4.51679687 0.03894531 5.43203125 0.05054688 6.375 0.0625 C6.705 1.0525 7.035 2.0425 7.375 3.0625 C7.045 3.7225 6.715 4.3825 6.375 5.0625 C4.44921875 5.5546875 4.44921875 5.5546875 2.0625 5.9375 C-1.96455609 6.74419168 -4.08585951 7.67697934 -6.625 11.0625 C-6.955 11.7225 -7.285 12.3825 -7.625 13.0625 C-4.16599522 12.9529307 -0.70810891 12.82223152 2.75 12.6875 C3.73484375 12.6565625 4.7196875 12.625625 5.734375 12.59375 C6.67539062 12.55507813 7.61640625 12.51640625 8.5859375 12.4765625 C9.45524902 12.4451416 10.32456055 12.4137207 11.22021484 12.38134766 C13.58461794 12.25020567 13.58461794 12.25020567 15.375 10.0625 C16.695 10.3925 18.015 10.7225 19.375 11.0625 C19.375 14.0325 19.375 17.0025 19.375 20.0625 C10.465 20.0625 1.555 20.0625 -7.625 20.0625 C-4.29166667 25.89583333 -4.29166667 25.89583333 -0.625 28.0625 C5.14207739 27.92720655 5.14207739 27.92720655 9.875 25 C10.6175 24.0409375 10.6175 24.0409375 11.375 23.0625 C13.685 23.7225 15.995 24.3825 18.375 25.0625 C18.08849017 28.50061794 17.64066773 29.80421193 15.125 32.25 C9.04546643 36.25696531 3.53237486 36.89427527 -3.625 36.0625 C-9.43268157 34.09108516 -12.9016002 30.07844964 -15.875 24.875 C-17.33658959 19.39403903 -17.35438497 14.09710019 -15.4375 8.75 C-10.92754392 2.06282375 -7.90904722 -0.07753968 0 0 Z " fill="#F8F0DD" transform="translate(598.625,841.9375)"/>
<path d="M0 0 C2.64 0 5.28 0 8 0 C8.07448116 5.28357911 8.12875795 10.56684863 8.16479492 15.85083008 C8.17982716 17.64613167 8.20025857 19.44139688 8.22631836 21.23657227 C8.26294786 23.82577526 8.2797821 26.41449028 8.29296875 29.00390625 C8.30845261 29.79898087 8.32393646 30.59405548 8.33988953 31.41322327 C8.3416777 37.41286809 7.36709247 42.29936268 3.28125 46.9609375 C2.6934375 47.42757812 2.105625 47.89421875 1.5 48.375 C0.9121875 48.85710938 0.324375 49.33921875 -0.28125 49.8359375 C-4.91317088 52.97301119 -10.64969846 52.66332076 -16 52 C-20.44604907 50.14867088 -23.32891817 48.00662275 -26 44 C-26 43.01 -26 42.02 -26 41 C-24.02 40.01 -22.04 39.02 -20 38 C-19.360625 38.825 -18.72125 39.65 -18.0625 40.5 C-14.4604219 43.44047192 -12.67767115 43.7558784 -8.16015625 43.484375 C-4.54029093 42.6726873 -3.03118591 41.0140178 -1 38 C-0.58109782 34.78938212 -0.58109782 34.78938212 -1 32 C-1.33 32.33 -1.66 32.66 -2 33 C-3.68183948 33.23287008 -5.3712416 33.41264166 -7.0625 33.5625 C-7.98160156 33.64628906 -8.90070312 33.73007812 -9.84765625 33.81640625 C-10.55792969 33.87699219 -11.26820313 33.93757812 -12 34 C-11.67 33.01 -11.34 32.02 -11 31 C-12.32 30.01 -13.64 29.02 -15 28 C-14.32453125 27.92523437 -13.6490625 27.85046875 -12.953125 27.7734375 C-7.00847498 26.89843014 -7.00847498 26.89843014 -2.3125 23.3125 C-0.70682849 19.26009094 -0.85924797 17.18275745 -2 13 C-2.97236487 11.3170608 -3.96564444 9.64556566 -5 8 C-4 6 -4 6 -1 4 C-0.27617533 1.94074861 -0.27617533 1.94074861 0 0 Z " fill="#F9F1DE" transform="translate(523,841)"/>
<path d="M0 0 C4 4.20512821 4 4.20512821 4 7 C1.69 7.66 -0.62 8.32 -3 9 C-3.495 8.34 -3.99 7.68 -4.5 7 C-8.10340212 4.1172783 -10.46985042 4.69799003 -15 5 C-14.67 6.65 -14.34 8.3 -14 10 C-12.96359375 10.31453125 -11.9271875 10.6290625 -10.859375 10.953125 C-9.48937869 11.38476767 -8.11959814 11.8170956 -6.75 12.25 C-6.06808594 12.45496094 -5.38617188 12.65992188 -4.68359375 12.87109375 C-0.5302965 14.2017618 2.38757036 15.44419299 5 19 C6.06856869 23.39213162 5.54644974 27.04877268 3.3125 30.9375 C-1.6345435 35.34972798 -6.73763136 35.4300346 -13.1171875 35.3203125 C-18.04872211 34.77236421 -20.64387012 32.49174287 -23.875 28.9375 C-25 27 -25 27 -25 24 C-22.36 23.34 -19.72 22.68 -17 22 C-16.690625 22.825 -16.38125 23.65 -16.0625 24.5 C-14.29781962 27.20593884 -14.29781962 27.20593884 -11.796875 27.33203125 C-9.51382601 27.31408275 -7.27262304 27.2143984 -5 27 C-4.67 25.35 -4.34 23.7 -4 22 C-4.556875 21.82984375 -5.11375 21.6596875 -5.6875 21.484375 C-19.62857143 17.05714286 -19.62857143 17.05714286 -23 12 C-23.44456411 7.40617081 -23.65588803 5.11743887 -21.3125 1.125 C-14.86227325 -4.80223539 -7.388176 -4.04258687 0 0 Z " fill="#F5EDDB" transform="translate(444,843)"/>
<path d="M0 0 C2.94998615 1.53375774 3.68385288 2.27577931 5.625 5.1875 C5.625 6.1775 5.625 7.1675 5.625 8.1875 C3.315 8.8475 1.005 9.5075 -1.375 10.1875 C-1.705 8.8675 -2.035 7.5475 -2.375 6.1875 C-5.345 6.1875 -8.315 6.1875 -11.375 6.1875 C-11.705 7.5075 -12.035 8.8275 -12.375 10.1875 C-9.14206097 12.45055732 -6.14849307 13.57688614 -2.375 14.5625 C2.13956018 15.86970101 4.89137325 17.17818077 7.625 21.1875 C8.17213453 25.0174417 7.96217027 27.363306 6.5 30.9375 C3.40312552 34.65374938 0.60002456 35.9653436 -4.22265625 36.5078125 C-10.41997011 36.73819591 -14.61856045 36.57805959 -19.375 32.1875 C-21.3125 30.125 -21.3125 30.125 -22.375 28.1875 C-21.88 26.7025 -21.88 26.7025 -21.375 25.1875 C-17.8125 24 -17.8125 24 -14.375 23.1875 C-14.065625 24.0125 -13.75625 24.8375 -13.4375 25.6875 C-11.67281962 28.39343884 -11.67281962 28.39343884 -9.171875 28.51953125 C-6.88882601 28.50158275 -4.64762304 28.4018984 -2.375 28.1875 C-1.8215236 26.11196352 -1.375 24.34384036 -1.375 22.1875 C-2.18324219 22.00574219 -2.99148438 21.82398438 -3.82421875 21.63671875 C-4.89285156 21.38535156 -5.96148438 21.13398437 -7.0625 20.875 C-8.11824219 20.63136719 -9.17398438 20.38773438 -10.26171875 20.13671875 C-15.04905113 18.67709294 -18.93521378 16.68184304 -21.375 12.1875 C-21.81306834 8.7559647 -21.58673307 6.69330677 -20.25 3.5 C-14.93512901 -3.05500756 -7.1999208 -3.39126705 0 0 Z " fill="#F7F0DF" transform="translate(807.375,841.8125)"/>
<path d="M0 0 C9.57 0 19.14 0 29 0 C29 34.98 29 69.96 29 106 C46.49 106 63.98 106 82 106 C82 115.24 82 124.48 82 134 C54.94 134 27.88 134 0 134 C0 89.78 0 45.56 0 0 Z M2 1 C2 44.56 2 88.12 2 133 C27.74 133 53.48 133 80 133 C80 124.75 80 116.5 80 108 C63.17 107.67 46.34 107.34 29 107 C28.67 72.02 28.34 37.04 28 1 C19.42 1 10.84 1 2 1 Z " fill="#FEFDF4" transform="translate(655,496)"/>
<path d="M0 0 C4 4.20512821 4 4.20512821 4 7 C1.69 7.66 -0.62 8.32 -3 9 C-3.53625 8.34 -4.0725 7.68 -4.625 7 C-6.88545719 4.71433147 -6.88545719 4.71433147 -10.125 4.6875 C-12.93939173 4.82471926 -12.93939173 4.82471926 -15 6 C-15.07305237 7.95868081 -15.07305237 7.95868081 -14 10 C-10.89615522 11.25426779 -7.86264165 12.12778141 -4.63476562 12.97851562 C0.06522487 14.343029 2.47166007 15.77760863 5 20 C6.0606347 24.11775824 5.44346929 27.24445973 3.3125 30.875 C-1.5882527 35.37839437 -6.72434633 35.43026309 -13.1171875 35.3203125 C-18.06893631 34.77011819 -20.64174668 32.44588256 -23.9375 28.9375 C-24.288125 28.298125 -24.63875 27.65875 -25 27 C-24.505 25.515 -24.505 25.515 -24 24 C-20.4375 22.8125 -20.4375 22.8125 -17 22 C-16.71125 22.639375 -16.4225 23.27875 -16.125 23.9375 C-15.17176549 26.15206079 -15.17176549 26.15206079 -13 27 C-11.62657169 27.0689472 -10.24997898 27.08467708 -8.875 27.0625 C-6.956875 27.0315625 -6.956875 27.0315625 -5 27 C-4.67 25.35 -4.34 23.7 -4 22 C-5.12019531 21.61328125 -6.24039063 21.2265625 -7.39453125 20.828125 C-8.86742909 20.30276016 -10.34007226 19.77668095 -11.8125 19.25 C-12.55048828 18.99734375 -13.28847656 18.7446875 -14.04882812 18.484375 C-21.03332019 15.95605208 -21.03332019 15.95605208 -23 12 C-23.51614464 7.35469822 -23.67880761 5.15648705 -21.3125 1.125 C-14.86227325 -4.80223539 -7.388176 -4.04258687 0 0 Z " fill="#F7F1E0" transform="translate(647,843)"/>
<path d="M0 0 C2.97 0 5.94 0 9 0 C11.97 7.26 14.94 14.52 18 22 C20.53941727 16.92116546 22.7448162 12.31448743 24.6875 7.0625 C26.89781022 1.10218978 26.89781022 1.10218978 28 0 C29.51928038 -0.07179964 31.04167482 -0.08392007 32.5625 -0.0625 C33.38878906 -0.05347656 34.21507812 -0.04445313 35.06640625 -0.03515625 C35.70449219 -0.02355469 36.34257812 -0.01195312 37 0 C36.71801758 0.69971924 36.43603516 1.39943848 36.14550781 2.12036133 C34.84511234 5.35031577 33.5475432 8.58139874 32.25 11.8125 C31.8065625 12.91271484 31.363125 14.01292969 30.90625 15.14648438 C28.13583136 22.05216026 25.49182224 28.9888863 23 36 C20.03 36 17.06 36 14 36 C12.0017042 31.19634591 10.00799416 26.39082482 8.01855469 21.58349609 C7.34078419 19.94755436 6.66175206 18.31213475 5.98144531 16.67724609 C5.00515792 14.33045614 4.03338758 11.98184063 3.0625 9.6328125 C2.75626709 8.89942657 2.45003418 8.16604065 2.13452148 7.41043091 C0 2.22774341 0 2.22774341 0 0 Z " fill="#F7EFDC" transform="translate(305,841)"/>
<path d="M0 0 C2.64 0 5.28 0 8 0 C8 3.3 8 6.6 8 10 C11.3 10 14.6 10 18 10 C18 12.31 18 14.62 18 17 C14.7 17 11.4 17 8 17 C8.14075205 19.93782469 8.2873838 22.87515171 8.4375 25.8125 C8.47681641 26.64587891 8.51613281 27.47925781 8.55664062 28.33789062 C8.61948242 29.54155273 8.61948242 29.54155273 8.68359375 30.76953125 C8.72025146 31.50792236 8.75690918 32.24631348 8.79467773 33.00708008 C8.94842141 35.207495 8.94842141 35.207495 10 38 C13.465 38.495 13.465 38.495 17 39 C17.04241723 41.33294775 17.04092937 43.66702567 17 46 C15.42972683 47.57027317 13.85730053 47.16974386 11.6875 47.1875 C10.90761719 47.20167969 10.12773438 47.21585938 9.32421875 47.23046875 C6.57563568 46.95792018 5.22152488 46.67186924 3 45 C-0.47255649 39.1239662 -0.36595711 33.75692954 -0.1875 27.0625 C-0.17396484 26.09248047 -0.16042969 25.12246094 -0.14648438 24.12304688 C-0.11138677 21.74810871 -0.06222275 19.37435622 0 17 C-2.31 17 -4.62 17 -7 17 C-7 14.69 -7 12.38 -7 10 C-4.69 10 -2.38 10 0 10 C0 6.7 0 3.4 0 0 Z " fill="#F9F1DE" transform="translate(663,831)"/>
<path d="M0 0 C23.76 0 47.52 0 72 0 C72 7.92 72 15.84 72 24 C56.16 24 40.32 24 24 24 C24 31.92 24 39.84 24 48 C38.19 48 52.38 48 67 48 C67 55.59 67 63.18 67 71 C52.48 71 37.96 71 23 71 C23 70.67 23 70.34 23 70 C36.86 70 50.72 70 65 70 C65 63.4 65 56.8 65 50 C61.97972656 50.01160156 58.95945312 50.02320313 55.84765625 50.03515625 C52.9353038 50.04294609 50.0229525 50.04902326 47.1105957 50.05493164 C45.08031702 50.05997278 43.05004198 50.06680557 41.01977539 50.07543945 C38.10822653 50.08751467 35.1967255 50.09323034 32.28515625 50.09765625 C30.91485008 50.10539818 30.91485008 50.10539818 29.51686096 50.11329651 C27.34424573 50.11349168 25.17172704 50.06211805 23 50 C20.41044843 47.41044843 21.81441208 40.04822397 21.8125 36.5625 C21.80025391 35.39138672 21.78800781 34.22027344 21.77539062 33.01367188 C21.77345703 31.89669922 21.77152344 30.77972656 21.76953125 29.62890625 C21.76542236 28.59838135 21.76131348 27.56785645 21.75708008 26.50610352 C22 24 22 24 24 22 C26.02481079 21.75949097 26.02481079 21.75949097 28.54150391 21.77294922 C29.95274033 21.77317581 29.95274033 21.77317581 31.39248657 21.77340698 C32.41023163 21.78372955 33.42797668 21.79405212 34.4765625 21.8046875 C35.51694672 21.8075174 36.55733093 21.81034729 37.62924194 21.81326294 C40.96127694 21.82448296 44.29304586 21.84959085 47.625 21.875 C49.88020446 21.88502744 52.13541312 21.8941537 54.390625 21.90234375 C59.92718629 21.92442826 65.46354799 21.95897054 71 22 C71 15.4 71 8.8 71 2 C47.57 2 24.14 2 0 2 C0 1.34 0 0.68 0 0 Z " fill="#FAF8EB" transform="translate(818,666)"/>
<path d="M0 0 C53 0 53 0 58 1 C58 1.33 58 1.66 58 2 C39.52 2 21.04 2 2 2 C2 40.28 2 78.56 2 118 C9.26 118.33 16.52 118.66 24 119 C23.98839844 116.12410156 23.97679687 113.24820313 23.96484375 110.28515625 C23.95705375 107.51180125 23.95097667 104.73844746 23.94506836 101.96508789 C23.94002744 100.03181415 23.93319481 98.09854424 23.92456055 96.1652832 C23.91248435 93.39273128 23.90676943 90.62022959 23.90234375 87.84765625 C23.89718246 86.97786636 23.89202118 86.10807648 23.88670349 85.21192932 C23.88650815 83.14094186 23.93791832 81.07005676 24 79 C25 78 25 78 26.94946289 77.88647461 C28.1984436 77.89432983 28.1984436 77.89432983 29.47265625 77.90234375 C30.37177734 77.90556641 31.27089844 77.90878906 32.19726562 77.91210938 C33.61555664 77.92467773 33.61555664 77.92467773 35.0625 77.9375 C36.01189453 77.94201172 36.96128906 77.94652344 37.93945312 77.95117188 C40.29303065 77.9629989 42.64648477 77.97947975 45 78 C45 78.33 45 78.66 45 79 C38.73 79 32.46 79 26 79 C26 92.53 26 106.06 26 120 C17.42 120 8.84 120 0 120 C0 80.4 0 40.8 0 0 Z " fill="#FCFAEC" transform="translate(238,666)"/>
<path d="M0 0 C1.21236328 0.01353516 1.21236328 0.01353516 2.44921875 0.02734375 C3.37154297 0.04474609 3.37154297 0.04474609 4.3125 0.0625 C4.3125 0.3925 4.3125 0.7225 4.3125 1.0625 C3.20841797 1.19205078 3.20841797 1.19205078 2.08203125 1.32421875 C-2.54756837 1.99083217 -5.94071506 2.56464337 -9.875 5.1875 C-12.44299638 9.26087357 -12.36908072 11.29143497 -11.6875 16.0625 C-7.8941657 21.07044873 -2.49159625 21.91134076 3.29296875 23.62109375 C6.3125 25.0625 6.3125 25.0625 7.36328125 27.59765625 C7.3125 30.0625 7.3125 30.0625 5.3125 32.0625 C-1.62225366 32.62175433 -1.62225366 32.62175433 -5.1875 30.75 C-6.6875 29.0625 -6.6875 29.0625 -6.6875 26.0625 C-7.595 26.3925 -8.5025 26.7225 -9.4375 27.0625 C-12.6875 28.0625 -12.6875 28.0625 -16.6875 28.0625 C-16.3575 29.3825 -16.0275 30.7025 -15.6875 32.0625 C-17.0075 31.4025 -18.3275 30.7425 -19.6875 30.0625 C-19.6875 29.4025 -19.6875 28.7425 -19.6875 28.0625 C-22.99317489 27.20862895 -22.99317489 27.20862895 -26.6875 27.0625 C-28.04250919 28.37379922 -29.37421343 29.70941687 -30.6875 31.0625 C-33.40639659 32.06667131 -35.80622262 32.39431697 -38.6875 32.0625 C-41.36028569 30.70598941 -42.60304248 29.35031923 -44.6875 27.0625 C-45.0175 25.7425 -45.3475 24.4225 -45.6875 23.0625 C-36.7775 23.0625 -27.8675 23.0625 -18.6875 23.0625 C-19.3475 18.4425 -20.0075 13.8225 -20.6875 9.0625 C-17.6875 12.0625 -17.6875 12.0625 -16.6875 15.0625 C-16.45675781 14.38703125 -16.22601562 13.7115625 -15.98828125 13.015625 C-12.69860114 4.01776477 -12.69860114 4.01776477 -7.6875 1.0625 C-4.80538698 0.10179566 -2.98899956 -0.04331883 0 0 Z " fill="#111C2B" transform="translate(636.6875,838.9375)"/>
<path d="M0 0 C3.92162462 2.20797352 6.01568932 5.52020567 8.171875 9.421875 C8.859375 12.046875 8.859375 12.046875 8.859375 20.046875 C-0.380625 20.376875 -9.620625 20.706875 -19.140625 21.046875 C-19.470625 20.056875 -19.800625 19.066875 -20.140625 18.046875 C-19.140625 17.046875 -19.140625 17.046875 -16.73217773 16.93334961 C-15.16898804 16.94120483 -15.16898804 16.94120483 -13.57421875 16.94921875 C-12.44951172 16.95244141 -11.32480469 16.95566406 -10.16601562 16.95898438 C-8.98201172 16.96736328 -7.79800781 16.97574219 -6.578125 16.984375 C-5.39025391 16.98888672 -4.20238281 16.99339844 -2.97851562 16.99804688 C-0.03250274 17.00987825 2.91341181 17.02636213 5.859375 17.046875 C5.529375 15.066875 5.199375 13.086875 4.859375 11.046875 C3.539375 11.376875 2.219375 11.706875 0.859375 12.046875 C-0.130625 10.396875 -1.120625 8.746875 -2.140625 7.046875 C-1.810625 7.665625 -1.480625 8.284375 -1.140625 8.921875 C-0.140625 11.046875 -0.140625 11.046875 -0.140625 13.046875 C-6.080625 13.046875 -12.020625 13.046875 -18.140625 13.046875 C-18.800625 11.396875 -19.460625 9.746875 -20.140625 8.046875 C-22.120625 9.036875 -22.120625 9.036875 -24.140625 10.046875 C-24.140625 6.046875 -24.140625 6.046875 -22.015625 3.484375 C-14.99006847 -2.4720751 -8.48776608 -3.48722172 0 0 Z " fill="#F8F0DD" transform="translate(389.140625,841.953125)"/>
<path d="M0 0 C17.82 0 35.64 0 54 0 C54 0.33 54 0.66 54 1 C36.51 1 19.02 1 1 1 C1 8.92 1 16.84 1 25 C4.38121094 24.98839844 7.76242187 24.97679687 11.24609375 24.96484375 C14.5059398 24.95705425 17.76578483 24.95097688 21.02563477 24.94506836 C23.29842591 24.94002675 25.5712138 24.93319363 27.84399414 24.92456055 C31.10303551 24.91248739 34.36203417 24.90677013 37.62109375 24.90234375 C38.64400009 24.89718246 39.66690643 24.89202118 40.72080994 24.88670349 C41.66170975 24.88662796 42.60260956 24.88655243 43.57202148 24.88647461 C44.40475082 24.884254 45.23748016 24.88203339 46.09544373 24.87974548 C48 25 48 25 49 26 C49.09983058 27.98757028 49.13080753 29.9786752 49.1328125 31.96875 C49.13474609 33.78439453 49.13474609 33.78439453 49.13671875 35.63671875 C49.13285156 36.91160156 49.12898437 38.18648437 49.125 39.5 C49.13080078 41.41232422 49.13080078 41.41232422 49.13671875 43.36328125 C49.13542969 44.57371094 49.13414062 45.78414062 49.1328125 47.03125 C49.13168457 48.15080078 49.13055664 49.27035156 49.12939453 50.42382812 C49 53 49 53 48 54 C46.52645652 54.09304018 45.04849409 54.11746265 43.57202148 54.11352539 C42.63112167 54.11344986 41.69022186 54.11337433 40.72080994 54.11329651 C39.69790359 54.10813522 38.67499725 54.10297394 37.62109375 54.09765625 C36.57929459 54.0962413 35.53749542 54.09482635 34.46412659 54.09336853 C31.12188906 54.0877508 27.77971743 54.0751953 24.4375 54.0625 C22.17773534 54.05748728 19.91796963 54.05292398 17.65820312 54.04882812 C12.10542266 54.03862456 6.55278548 54.01905264 1 54 C1 62.58 1 71.16 1 80 C18.82 80 36.64 80 55 80 C55 80.33 55 80.66 55 81 C36.85 81 18.7 81 0 81 C0 71.43 0 61.86 0 52 C15.51 52 31.02 52 47 52 C47 43.75 47 35.5 47 27 C31.49 27 15.98 27 0 27 C0 18.09 0 9.18 0 0 Z " fill="#15171D" transform="translate(572,523)"/>
<path d="M0 0 C8.58 0 17.16 0 26 0 C26.04514343 11.16119206 26.08185417 22.3223237 26.10362434 33.48358631 C26.11407171 38.66593117 26.1282483 43.84821046 26.15087891 49.03051758 C26.1725733 54.02959019 26.18456145 59.02859964 26.18975449 64.02771568 C26.19345637 65.93714073 26.200685 67.84656223 26.21146011 69.75596046 C26.22592979 72.42568114 26.22797984 75.09513915 26.22705078 77.76489258 C26.23424133 78.55827026 26.24143188 79.35164795 26.24884033 80.16906738 C26.23441687 83.98692567 26.1703966 85.7444051 24 89 C24 60.29 24 31.58 24 2 C16.74 2 9.48 2 2 2 C2.01047363 4.35237793 2.02094727 6.70475586 2.03173828 9.12841797 C2.06482996 16.88765605 2.08695042 24.64689718 2.10362434 32.40618706 C2.11407597 37.11213783 2.12826022 41.81801651 2.15087891 46.52392578 C2.17255826 51.06264076 2.18455823 55.60128624 2.18975449 60.14004898 C2.19345909 61.87446309 2.20069294 63.60887326 2.21146011 65.3432579 C2.22590995 67.76652086 2.2279807 70.18949409 2.22705078 72.61279297 C2.23424133 73.33496002 2.24143188 74.05712708 2.24884033 74.80117798 C2.22810432 79.77189568 2.22810432 79.77189568 0 82 C0 54.94 0 27.88 0 0 Z " fill="#FBFAEC" transform="translate(562,666)"/>
<path d="M0 0 C2.92937654 1.81310142 5.43647949 3.87295899 7 7 C7.55512815 11.63213493 7.6364242 14.98172127 5.125 19 C1.85159987 22.08084718 -0.46126475 22.33387487 -4.9609375 22.29296875 C-8.13134567 21.83745033 -9.8192402 20.24684343 -12 18 C-13.74221711 14.51556578 -13.58675154 10.80112955 -13 7 C-9.9127633 1.42454268 -6.30871355 -0.72792849 0 0 Z " fill="#162435" transform="translate(288,848)"/>
<path d="M0 0 C3.23209722 3.23209722 4.87537924 5.70394405 5.3125 10.25 C4.94713599 14.63436813 3.73973233 16.61562477 1 20 C-2.50843875 21.75421937 -6.18064495 21.67167968 -10 21 C-13.31932196 18.35809068 -14.65536892 16.9071817 -15.40234375 12.7734375 C-15.59740357 8.10760672 -15.11211072 4.66784478 -12 1 C-8.47680964 -1.8707477 -4.12801839 -1.33927496 0 0 Z " fill="#162434" transform="translate(727,849)"/>
<path d="M0 0 C2.92937654 1.81310142 5.43647949 3.87295899 7 7 C7.67660495 12.86390959 7.67660495 12.86390959 5.953125 15.7578125 C4.16405507 17.93626824 2.54084375 19.72957812 0 21 C-4.18144011 21.39447548 -6.30946048 21.45035186 -9.875 19.125 C-12.71941408 16.28058592 -13.20354172 14.6112568 -13.375 10.6875 C-13.35031361 6.85493835 -13.13918768 6.17581602 -10.625 3 C-6.82876614 0.10763134 -4.79805415 -0.55362163 0 0 Z " fill="#182737" transform="translate(560,848)"/>
<path d="M0 0 C3.50165855 2.5881824 4.77470816 4.27111465 6.0625 8.4375 C5.98493382 12.85877235 4.80829096 14.64565246 2 18 C-1.7373856 20.4915904 -3.57331583 20.45793285 -8 20 C-10.75329021 18.20437595 -12.52627461 16.94745078 -14 14 C-14.42071592 10.94079426 -14.48514117 8.0532254 -14 5 C-9.58491896 -0.57694447 -6.89565639 -1.63625745 0 0 Z " fill="#162434" transform="translate(517,849)"/>
<path d="M0 0 C2.97 0 5.94 0 9 0 C9 11.88 9 23.76 9 36 C6.03 36 3.06 36 0 36 C0 24.12 0 12.24 0 0 Z " fill="#FDF4E1" transform="translate(687,841)"/>
<path d="M0 0 C8.58 0 17.16 0 26 0 C25.01 1.485 25.01 1.485 24 3 C17.07 3 10.14 3 3 3 C3 41.28 3 79.56 3 119 C2.01 119 1.02 119 0 119 C0 79.73 0 40.46 0 0 Z " fill="#CAC0AE" transform="translate(726,666)"/>
<path d="M0 0 C0.99 0.495 0.99 0.495 2 1 C2.63385922 3.04243528 3.01826504 5.09132519 3.4375 7.1875 C3.623125 7.785625 3.80875 8.38375 4 9 C4.66 9.33 5.32 9.66 6 10 C6.66 7.03 7.32 4.06 8 1 C8.33 1 8.66 1 9 1 C9.10957031 1.68707031 9.21914063 2.37414062 9.33203125 3.08203125 C9.49058594 3.98308594 9.64914062 4.88414062 9.8125 5.8125 C9.96332031 6.70582031 10.11414063 7.59914063 10.26953125 8.51953125 C11.11312378 11.3841369 11.56797716 12.28562324 14 14 C16.56591344 14.99551833 19.06594496 15.87729018 21.6875 16.6875 C22.38939453 16.91244141 23.09128906 17.13738281 23.81445312 17.36914062 C25.54036743 17.92096357 27.26985433 18.46159058 29 19 C29.625 21.375 29.625 21.375 30 24 C27.58513057 26.41486943 26.87292211 26.2961925 23.5625 26.3125 C22.38880859 26.33763672 22.38880859 26.33763672 21.19140625 26.36328125 C18.48861203 25.91522445 17.59994393 25.19670758 16 23 C16 22.01 16 21.02 16 20 C15.2575 20.350625 14.515 20.70125 13.75 21.0625 C10.79617083 22.06948722 9.87122686 21.8910704 7 21 C6.34 21.33 5.68 21.66 5 22 C4.60843772 24.32506659 4.60843772 24.32506659 4.5 27 C4.34375 29.75 4.34375 29.75 4 32 C3.01 32.495 3.01 32.495 2 33 C1.97494385 32.17798096 1.9498877 31.35596191 1.92407227 30.5090332 C1.80787345 26.77670626 1.68525495 23.04461683 1.5625 19.3125 C1.52318359 18.01892578 1.48386719 16.72535156 1.44335938 15.39257812 C1.40146484 14.14541016 1.35957031 12.89824219 1.31640625 11.61328125 C1.27974854 10.46641846 1.24309082 9.31955566 1.20532227 8.13793945 C1.02159702 5.33006722 0.6300618 2.73774186 0 0 Z " fill="#0F1B29" transform="translate(777,845)"/>
<path d="M0 0 C2.64 0 5.28 0 8 0 C8 11.88 8 23.76 8 36 C5.36 36 2.72 36 0 36 C0 24.12 0 12.24 0 0 Z " fill="#FBF2E1" transform="translate(347,841)"/>
<path d="M0 0 C8.25 0 16.5 0 25 0 C25 25.08 25 50.16 25 76 C24.67 76 24.34 76 24 76 C24 51.58 24 27.16 24 2 C16.74 2 9.48 2 2 2 C2.01047363 4.29179199 2.02094727 6.58358398 2.03173828 8.94482422 C2.06483098 16.50449211 2.08695083 24.06416314 2.10362434 31.6238842 C2.11407566 36.20876766 2.12825935 40.79357711 2.15087891 45.37841797 C2.17255936 49.80042374 2.18455846 54.22235819 2.18975449 58.64441299 C2.19345889 60.33417001 2.20069237 62.02392298 2.21146011 63.71364975 C2.22591143 66.07464889 2.22798064 68.4353507 2.22705078 70.79638672 C2.23424133 71.49985229 2.24143188 72.20331787 2.24884033 72.92810059 C2.22810432 77.77189568 2.22810432 77.77189568 0 80 C0 53.6 0 27.2 0 0 Z " fill="#FDFCEE" transform="translate(493,666)"/>
<path d="M0 0 C14.85 0 29.7 0 45 0 C45.020625 4.104375 45.04125 8.20875 45.0625 12.4375 C45.071604 13.73357178 45.08070801 15.02964355 45.09008789 16.36499023 C45.09258545 17.37762939 45.09508301 18.39026855 45.09765625 19.43359375 C45.10289307 20.47572021 45.10812988 21.51784668 45.11352539 22.59155273 C45 25 45 25 44 26 C34.1 26 24.2 26 14 26 C14 57.35 14 88.7 14 121 C13.67 121 13.34 121 13 121 C12.28456361 88.66158513 11.85348891 56.34639243 12 24 C22.56 24 33.12 24 44 24 C44 16.41 44 8.82 44 1 C29.48 1 14.96 1 0 1 C0 0.67 0 0.34 0 0 Z " fill="#0F121C" transform="translate(177,665)"/>
<path d="M0 0 C3.97568309 2.16574176 6.29867024 4.67152597 8.875 8.375 C8.875 9.035 8.875 9.695 8.875 10.375 C4.2436708 14.47080077 -1.13109449 13.71458181 -6.9375 13.5625 C-8.40606445 13.54219727 -8.40606445 13.54219727 -9.90429688 13.52148438 C-12.31176625 13.48625312 -14.71809564 13.43699265 -17.125 13.375 C-15.3984375 8.6015625 -15.3984375 8.6015625 -12.9375 6.5625 C-9.50825617 5.11459705 -6.81125273 5.1581616 -3.125 5.375 C-3.125 3.725 -3.125 2.075 -3.125 0.375 C-6.755 0.705 -10.385 1.035 -14.125 1.375 C-14.125 0.715 -14.125 0.055 -14.125 -0.625 C-9.07076102 -2.30974633 -4.84044468 -2.20519314 0 0 Z " fill="#F0EADA" transform="translate(608.125,841.625)"/>
<path d="M0 0 C17.82 0 35.64 0 54 0 C54 0.33 54 0.66 54 1 C36.84 1 19.68 1 2 1 C2 8.92 2 16.84 2 25 C5.23683594 24.98839844 8.47367187 24.97679687 11.80859375 24.96484375 C14.92944236 24.95705413 18.05028991 24.95097683 21.17114258 24.94506836 C23.34692873 24.94002692 25.52271147 24.93319393 27.69848633 24.92456055 C30.81853067 24.91248662 33.93853038 24.90676995 37.05859375 24.90234375 C38.52733192 24.89460182 38.52733192 24.89460182 40.02574158 24.88670349 C41.37702904 24.88659019 41.37702904 24.88659019 42.75561523 24.88647461 C43.95141457 24.88314369 43.95141457 24.88314369 45.17137146 24.87974548 C47 25 47 25 48 26 C48.08758003 27.99964982 48.10696576 30.0023611 48.09765625 32.00390625 C48.09443359 33.21884766 48.09121094 34.43378906 48.08789062 35.68554688 C48.07532227 37.60463867 48.07532227 37.60463867 48.0625 39.5625 C48.05798828 40.84576172 48.05347656 42.12902344 48.04882812 43.45117188 C48.03699545 46.63416022 48.02051068 49.81705762 48 53 C47.67 53 47.34 53 47 53 C47 44.42 47 35.84 47 27 C31.49 27 15.98 27 0 27 C0 18.09 0 9.18 0 0 Z " fill="#060A13" transform="translate(460,523)"/>
<path d="M0 0 C2.64 0 5.28 0 8 0 C8.66 1.65 9.32 3.3 10 5 C9.62875 4.525625 9.2575 4.05125 8.875 3.5625 C6.62243117 1.4178599 6.62243117 1.4178599 1 1 C1.33 12.22 1.66 23.44 2 35 C2.33 34.34 2.66 33.68 3 33 C3.66 33 4.32 33 5 33 C5.33 27.72 5.66 22.44 6 17 C8 19 8 19 8.22705078 22.07275391 C8.21134033 24.00513916 8.21134033 24.00513916 8.1953125 25.9765625 C8.1924826 26.66181 8.18965271 27.3470575 8.18673706 28.05307007 C8.17553281 30.24389027 8.15042859 32.43430316 8.125 34.625 C8.11497048 36.1093691 8.10584458 37.5937446 8.09765625 39.078125 C8.07559294 42.71888261 8.04106176 46.35940156 8 50 C5.36 50 2.72 50 0 50 C0 33.5 0 17 0 0 Z " fill="#FDF7E8" transform="translate(207,827)"/>
<path d="M0 0 C15.51 0 31.02 0 47 0 C47 0.66 47 1.32 47 2 C32.15 2 17.3 2 2 2 C2 10.58 2 19.16 2 28 C19.49 28 36.98 28 55 28 C55 28.33 55 28.66 55 29 C36.85 29 18.7 29 0 29 C0 19.43 0 9.86 0 0 Z " fill="#181C23" transform="translate(460,575)"/>
<path d="M0 0 C5.94 0 11.88 0 18 0 C20.164007 4.07057618 22.32146078 8.14339967 24.46362305 12.2253418 C25.19438463 13.61331797 25.9287466 14.99940469 26.66674805 16.38354492 C27.72613524 18.37194416 28.77244426 20.36674973 29.81640625 22.36328125 C30.31630821 23.29156487 30.31630821 23.29156487 30.8263092 24.23860168 C31.62827092 25.78806619 32.32334809 27.39185665 33 29 C32.505 30.485 32.505 30.485 32 32 C30.02168359 28.21117591 28.04625738 24.42086361 26.07348633 20.62915039 C25.40207733 19.33967545 24.72988267 18.05060927 24.05688477 16.76196289 C23.08923416 14.908787 22.12442583 13.05415566 21.16015625 11.19921875 C20.28822632 9.52605591 20.28822632 9.52605591 19.39868164 7.8190918 C18 5 18 5 17 2 C12.05 2 7.1 2 2 2 C2 17.18 2 32.36 2 48 C0 46 0 46 -0.24050903 44.01315308 C-0.23606781 43.20040924 -0.23162659 42.38766541 -0.22705078 41.55029297 C-0.22689972 40.62948944 -0.22674866 39.70868591 -0.22659302 38.75997925 C-0.21627045 37.76410797 -0.20594788 36.76823669 -0.1953125 35.7421875 C-0.1924826 34.72399933 -0.18965271 33.70581116 -0.18673706 32.6567688 C-0.1755177 29.396061 -0.15040996 26.13562516 -0.125 22.875 C-0.11497247 20.66797271 -0.10584623 18.46094112 -0.09765625 16.25390625 C-0.07557263 10.83583228 -0.04103082 5.41796229 0 0 Z " fill="#091121" transform="translate(333,583)"/>
<path d="M0 0 C0.55429687 0.42152344 1.10859375 0.84304688 1.6796875 1.27734375 C2.40414063 1.82519531 3.12859375 2.37304688 3.875 2.9375 C4.59429687 3.48277344 5.31359375 4.02804687 6.0546875 4.58984375 C10.21192616 7.60342438 13.99448555 7.4879325 19 7 C22.35537627 5.65784949 24.45789202 4.54210798 27 2 C27.49029622 9.23186925 27.49029622 9.23186925 25.125 12.9375 C22.21071327 15.76607241 20.58527937 16.17105755 16.625 16.25 C13.75741705 16.20389738 12.14303769 16.06436696 9.5 14.875 C8 13 8 13 7.5 9.9375 C7.335 8.968125 7.17 7.99875 7 7 C5.15017528 5.74172877 5.15017528 5.74172877 3 5 C1.25 3.5 1.25 3.5 0 2 C0 1.34 0 0.68 0 0 Z " fill="#121E2B" transform="translate(496,869)"/>
<path d="M0 0 C17.82 0 35.64 0 54 0 C54 8.91 54 17.82 54 27 C49.36272995 20.04409493 52 10.35995747 52 2 C35.17 2 18.34 2 1 2 C0.67 1.34 0.34 0.68 0 0 Z " fill="#FCF9E7" transform="translate(683,602)"/>
<path d="M0 0 C4 4.20512821 4 4.20512821 4 7 C1.69 7.66 -0.62 8.32 -3 9 C-3.515625 8.34 -4.03125 7.68 -4.5625 7 C-7.79995755 4.34362457 -9.92552281 4.68657868 -14 5 C-14.33 4.01 -14.66 3.02 -15 2 C-16.65 2.33 -18.3 2.66 -20 3 C-19.8125 1.125 -19.8125 1.125 -19 -1 C-12.65967371 -4.7296037 -6.16506335 -3.37333655 0 0 Z " fill="#F8F1E1" transform="translate(647,843)"/>
<path d="M0 0 C4.24994263 -0.05805933 8.49978324 -0.09361654 12.75 -0.125 C13.9565625 -0.14175781 15.163125 -0.15851562 16.40625 -0.17578125 C17.56640625 -0.18222656 18.7265625 -0.18867187 19.921875 -0.1953125 C20.99018555 -0.20578613 22.05849609 -0.21625977 23.15917969 -0.22705078 C25.97979105 -0.00161519 27.60787463 0.54151006 30 2 C30 2.66 30 3.32 30 4 C21.09 3.67 12.18 3.34 3 3 C3 10.59 3 18.18 3 26 C11.25 26 19.5 26 28 26 C28 26.33 28 26.66 28 27 C19.42 27.33 10.84 27.66 2 28 C2 19.42 2 10.84 2 2 C1.34 2 0.68 2 0 2 C0 1.34 0 0.68 0 0 Z " fill="#253240" transform="translate(640,735)"/>
<path d="M0 0 C8.91 0 17.82 0 27 0 C27 0.33 27 0.66 27 1 C19.08 1.33 11.16 1.66 3 2 C9.1630183 1.92093225 9.1630183 1.92093225 15.32568359 1.81982422 C16.47544678 1.81233154 16.47544678 1.81233154 17.6484375 1.8046875 C18.82672119 1.78897705 18.82672119 1.78897705 20.02880859 1.77294922 C22 2 22 2 24 4 C23.2575 3.9175 22.515 3.835 21.75 3.75 C18.87403366 3.70394577 18.87403366 3.70394577 17.1875 5.9375 C14.48418193 8.48634275 12.67161106 8.8785838 9.03515625 9.1640625 C5.48983109 8.87825894 3.54894787 7.36243949 1 5 C0.67 3.35 0.34 1.7 0 0 Z " fill="#121C28" transform="translate(371,862)"/>
<path d="M0 0 C8.91 0 17.82 0 27 0 C26.01 0.99 25.02 1.98 24 3 C22.7934375 2.9690625 22.7934375 2.9690625 21.5625 2.9375 C20.716875 2.958125 19.87125 2.97875 19 3 C18.401875 3.639375 17.80375 4.27875 17.1875 4.9375 C14.49162788 7.47932229 12.6659311 7.93288897 9.03515625 8.23828125 C5.24412544 7.79441776 3.55325694 5.74008062 1 3 C0.67 2.01 0.34 1.02 0 0 Z " fill="#1B2838" transform="translate(591,863)"/>
<path d="M0 0 C2.97 0 5.94 0 9 0 C9 11.55 9 23.1 9 35 C8.67 35 8.34 35 8 35 C7.67 24.44 7.34 13.88 7 3 C5.68 3 4.36 3 3 3 C3 13.56 3 24.12 3 35 C2.01 35 1.02 35 0 35 C0 23.45 0 11.9 0 0 Z " fill="#EDE5D2" transform="translate(687,841)"/>
<path d="M0 0 C1.64574566 -0.02688151 3.29161413 -0.04634123 4.9375 -0.0625 C5.85402344 -0.07410156 6.77054688 -0.08570313 7.71484375 -0.09765625 C10 0 10 0 11 1 C11.07179964 2.51928038 11.08392007 4.04167482 11.0625 5.5625 C11.05347656 6.38878906 11.04445313 7.21507812 11.03515625 8.06640625 C11.02355469 8.70449219 11.01195312 9.34257813 11 10 C13.64 10 16.28 10 19 10 C19 10.33 19 10.66 19 11 C15.7 11 12.4 11 9 11 C9 7.7 9 4.4 9 1 C6.36 1 3.72 1 1 1 C1 4.3 1 7.6 1 11 C-1.31 11 -3.62 11 -6 11 C-6 13.31 -6 15.62 -6 18 C-3.69 18 -1.38 18 1 18 C1 25.59 1 33.18 1 41 C-1.06723714 37.89914429 -1.24497423 37.27068319 -1.1953125 33.76953125 C-1.18564453 32.56586914 -1.18564453 32.56586914 -1.17578125 31.33789062 C-1.15902344 30.50451172 -1.14226563 29.67113281 -1.125 28.8125 C-1.11597656 27.96751953 -1.10695313 27.12253906 -1.09765625 26.25195312 C-1.07410703 24.16784757 -1.03823647 22.08388783 -1 20 C-1.804375 20.020625 -2.60875 20.04125 -3.4375 20.0625 C-6 20 -6 20 -7 19 C-7.07179964 17.48071962 -7.08392007 15.95832518 -7.0625 14.4375 C-7.05347656 13.61121094 -7.04445313 12.78492188 -7.03515625 11.93359375 C-7.02355469 11.29550781 -7.01195312 10.65742187 -7 10 C-5.02 10 -3.04 10 -1 10 C-1.020625 8.72125 -1.04125 7.4425 -1.0625 6.125 C-1.125 2.25 -1.125 2.25 0 0 Z " fill="#070D18" transform="translate(662,830)"/>
<path d="M0 0 C0.66 0 1.32 0 2 0 C2 0.66 2 1.32 2 2 C3.65 2 5.3 2 7 2 C5.68 2.33 4.36 2.66 3 3 C3 13.56 3 24.12 3 35 C4.98 35 6.96 35 9 35 C9 35.33 9 35.66 9 36 C6.03 36 3.06 36 0 36 C0 24.12 0 12.24 0 0 Z " fill="#EEE7D7" transform="translate(747,841)"/>
<path d="M0 0 C3.875 1.875 3.875 1.875 5 3 C5.56601461 7.49100115 5.59239688 10.96879061 3.3125 14.9375 C-1.63477663 19.34993592 -6.72857331 19.41456753 -13.10546875 19.3359375 C-17.12287248 18.86968012 -19.0140014 17.65422097 -22 15 C-21.67 14.34 -21.34 13.68 -21 13 C-20.34 13.33 -19.68 13.66 -19 14 C-19 13.34 -19 12.68 -19 12 C-16.87422093 12.0868276 -14.74930419 12.1949951 -12.625 12.3125 C-11.44164062 12.37050781 -10.25828125 12.42851563 -9.0390625 12.48828125 C-7.53472656 12.74158203 -7.53472656 12.74158203 -6 13 C-5.01 14.485 -5.01 14.485 -4 16 C-1.28878505 15.14382686 0.55388461 14.54750525 2.375 12.3125 C3.27935131 8.96640017 2.73223176 6.35606224 2 3 C1.34 2.01 0.68 1.02 0 0 Z " fill="#FBF6E9" transform="translate(444,859)"/>
<path d="M0 0 C2.64 0 5.28 0 8 0 C8 11.88 8 23.76 8 36 C5.36 36 2.72 36 0 36 C0.33 34.68 0.66 33.36 1 32 C1 32.99 1 33.98 1 35 C2.65 35 4.3 35 6 35 C6 24.11 6 13.22 6 2 C4.35 2 2.7 2 1 2 C1 9.26 1 16.52 1 24 C0.67 24 0.34 24 0 24 C0 16.08 0 8.16 0 0 Z " fill="#FCFAED" transform="translate(479,841)"/>
<path d="M0 0 C2.5 2.4375 2.5 2.4375 4 5 C4 5.66 4 6.32 4 7 C-1.94 7 -7.88 7 -14 7 C-11.08120542 -0.29698646 -7.85498692 -2.68807954 0 0 Z " fill="#1D2A3B" transform="translate(385,848)"/>
<path d="M0 0 C0.33 0 0.66 0 1 0 C1.33 14.19 1.66 28.38 2 43 C14.87 43.495 14.87 43.495 28 44 C28 44.33 28 44.66 28 45 C23.5427121 45.25395244 19.08439279 45.47397061 14.625 45.6875 C13.35398438 45.76033203 12.08296875 45.83316406 10.7734375 45.90820312 C8.95585937 45.99038086 8.95585937 45.99038086 7.1015625 46.07421875 C5.98088379 46.13182373 4.86020508 46.18942871 3.70556641 46.2487793 C2.81272949 46.16668213 1.91989258 46.08458496 1 46 C-1.4108002 42.3837997 -1.27332008 39.76038382 -1.23046875 35.5859375 C-1.23001053 34.85686188 -1.22955231 34.12778625 -1.2290802 33.37661743 C-1.22605962 31.83162818 -1.21817908 30.28664192 -1.20581055 28.74169922 C-1.18772831 26.40450944 -1.18529986 24.06772072 -1.18554688 21.73046875 C-1.16766146 14.43028559 -1.03553708 7.24047524 0 0 Z " fill="#283547" transform="translate(236,742)"/>
<path d="M0 0 C2.4375 2.4375 2.4375 2.4375 4 5 C4 5.66 4 6.32 4 7 C-1.94 7 -7.88 7 -14 7 C-12 2 -12 2 -9.8125 0.125 C-6.03438646 -1.38624541 -3.88940939 -1.13146455 0 0 Z " fill="#1A2A3A" transform="translate(605,848)"/>
<path d="M0 0 C0.33 0 0.66 0 1 0 C1 11.88 1 23.76 1 36 C3.97 36 6.94 36 10 36 C10 28.08 10 20.16 10 12 C10.66 12 11.32 12 12 12 C12.02886751 16.14581887 12.04675327 20.29161216 12.0625 24.4375 C12.07087891 25.62150391 12.07925781 26.80550781 12.08789062 28.02539062 C12.09111328 29.15009766 12.09433594 30.27480469 12.09765625 31.43359375 C12.10289307 32.47572021 12.10812988 33.51784668 12.11352539 34.59155273 C12 37 12 37 11 38 C9.33570949 38.09823937 7.66718069 38.12973631 6 38.125 C4.63875 38.12886719 4.63875 38.12886719 3.25 38.1328125 C1 38 1 38 0 37 C-0.08858646 34.26105915 -0.11523479 31.5474673 -0.09765625 28.80859375 C-0.0962413 27.98875504 -0.09482635 27.16891632 -0.09336853 26.32423401 C-0.08775289 23.69528618 -0.07519779 21.06642227 -0.0625 18.4375 C-0.05748701 16.65950643 -0.05292376 14.88151154 -0.04882812 13.10351562 C-0.03777839 8.73564455 -0.02050331 4.36783652 0 0 Z " fill="#050914" transform="translate(746,841)"/>
<path d="M0 0 C3.625 0.25 3.625 0.25 5.5625 1.625 C6.625 3.25 6.625 3.25 6.625 5.25 C7.388125 4.92 8.15125 4.59 8.9375 4.25 C11.625 3.25 11.625 3.25 14.625 3.25 C14.955 2.59 15.285 1.93 15.625 1.25 C15.625 2.24 15.625 3.23 15.625 4.25 C9.19710777 7.34033281 9.19710777 7.34033281 6.25 6.875 C5.71375 6.66875 5.1775 6.4625 4.625 6.25 C4.295 6.58 3.965 6.91 3.625 7.25 C5.605 7.91 7.585 8.57 9.625 9.25 C6.26602455 10.39266516 4.32049648 10.10911331 1 8.9375 C-0.16402344 8.54111328 -0.16402344 8.54111328 -1.3515625 8.13671875 C-3.375 7.25 -3.375 7.25 -5.375 5.25 C-4.73690014 1.0385409 -4.39568925 0.32560661 0 0 Z " fill="#131C29" transform="translate(799.375,846.75)"/>
<path d="M0 0 C0.66 0 1.32 0 2 0 C3.53214888 3.06429776 3.22938548 5.6165642 3 9 C1.54704383 12.44121198 0.68439721 13.6657595 -2.6875 15.3125 C-3.450625 15.539375 -4.21375 15.76625 -5 16 C-5.33 15.01 -5.66 14.02 -6 13 C-8.97 13 -11.94 13 -15 13 C-14.67 12.01 -14.34 11.02 -14 10 C-13.37351562 9.97421875 -12.74703125 9.9484375 -12.1015625 9.921875 C-11.28429687 9.86515625 -10.46703125 9.8084375 -9.625 9.75 C-8.81289063 9.70359375 -8.00078125 9.6571875 -7.1640625 9.609375 C-4.81161073 9.2077908 -4.81161073 9.2077908 -3.7109375 6.953125 C-3.47632813 6.30859375 -3.24171875 5.6640625 -3 5 C-2.01 5 -1.02 5 0 5 C0 3.35 0 1.7 0 0 Z " fill="#F0E8D7" transform="translate(812,861)"/>
<path d="M0 0 C0.33 0 0.66 0 1 0 C1.07476563 0.85722656 1.14953125 1.71445312 1.2265625 2.59765625 C1.9820982 9.16785391 2.69132109 13.89547599 7.3671875 18.73046875 C12.27307251 22.54485303 16.96482041 22.65535986 23 22 C26.02286884 20.61451845 27.66871425 19.33128575 30 17 C30.49029622 24.23186925 30.49029622 24.23186925 28.125 27.9375 C25.20711657 30.76956333 24.5408583 30.99067486 20.375 31.0625 C19.26125 31.041875 18.1475 31.02125 17 31 C17 30.67 17 30.34 17 30 C19.64 29.34 22.28 28.68 25 28 C25 26.68 25 25.36 25 24 C24.13117187 24.04640625 23.26234375 24.0928125 22.3671875 24.140625 C12.93890053 24.4359181 12.93890053 24.4359181 8.5 22.375 C0.12364181 14.41745972 0.12364181 14.41745972 -0.09765625 8.30078125 C-0.08605469 7.31464844 -0.07445312 6.32851563 -0.0625 5.3125 C-0.05347656 4.31863281 -0.04445313 3.32476563 -0.03515625 2.30078125 C-0.02355469 1.54152344 -0.01195312 0.78226563 0 0 Z " fill="#070B12" transform="translate(537,854)"/>
<path d="M0 0 C0.99 0.33 1.98 0.66 3 1 C3 3.64 3 6.28 3 9 C-6.24 9.33 -15.48 9.66 -25 10 C-25.33 9.01 -25.66 8.02 -26 7 C-25 6 -25 6 -22.59155273 5.88647461 C-21.02836304 5.89432983 -21.02836304 5.89432983 -19.43359375 5.90234375 C-18.30888672 5.90556641 -17.18417969 5.90878906 -16.02539062 5.91210938 C-14.84138672 5.92048828 -13.65738281 5.92886719 -12.4375 5.9375 C-11.24962891 5.94201172 -10.06175781 5.94652344 -8.83789062 5.95117188 C-5.89187774 5.96300325 -2.94596319 5.97948713 0 6 C0 4.02 0 2.04 0 0 Z " fill="#DAD4C7" transform="translate(395,853)"/>
<path d="M0 0 C4.54300628 0.19795234 8.04994941 0.4260111 12 2.8125 C15.5068901 6.64816105 15.09279738 10.25855049 14.87890625 15.296875 C14.83056641 16.50214844 14.78222656 17.70742188 14.73242188 18.94921875 C14.67634766 20.20347656 14.62027344 21.45773437 14.5625 22.75 C14.51029297 24.01972656 14.45808594 25.28945313 14.40429688 26.59765625 C14.27468016 29.73202407 14.13971529 32.86606874 14 36 C12.35 36 10.7 36 9 36 C9 28.74 9 21.48 9 14 C9.33 14 9.66 14 10 14 C10 20.93 10 27.86 10 35 C10.99 35 11.98 35 13 35 C13 25.76 13 16.52 13 7 C12.01 7 11.02 7 10 7 C9.67 5.68 9.34 4.36 9 3 C5.7 2.67 2.4 2.34 -1 2 C-0.67 1.34 -0.34 0.68 0 0 Z " fill="#F6E9CF" transform="translate(763,840)"/>
<path d="M0 0 C1.423125 0.2784375 1.423125 0.2784375 2.875 0.5625 C5.89868793 1.28686632 5.89868793 1.28686632 8 0 C10.5625 0.625 10.5625 0.625 13 2 C13.9375 4.5 13.9375 4.5 14 7 C12 9 12 9 9.8359375 9.1953125 C8.61777344 9.16050781 8.61777344 9.16050781 7.375 9.125 C6.55773437 9.10695313 5.74046875 9.08890625 4.8984375 9.0703125 C4.27195312 9.04710937 3.64546875 9.02390625 3 9 C1.41841038 5.99112219 0.56054661 3.36327963 0 0 Z " fill="#172435" transform="translate(793,862)"/>
<path d="M0 0 C2.97 0 5.94 0 9 0 C8.67 7.59 8.34 15.18 8 23 C7.67 23 7.34 23 7 23 C7 16.07 7 9.14 7 2 C5.35 2 3.7 2 2 2 C2 10.58 2 19.16 2 28 C0 26 0 26 -0.22705078 23.38623047 C-0.21657715 22.30744629 -0.20610352 21.22866211 -0.1953125 20.1171875 C-0.18886719 18.95058594 -0.18242187 17.78398438 -0.17578125 16.58203125 C-0.15902344 15.35871094 -0.14226562 14.13539063 -0.125 12.875 C-0.11597656 11.64394531 -0.10695313 10.41289063 -0.09765625 9.14453125 C-0.07402548 6.09616185 -0.04108054 3.04817618 0 0 Z " fill="#FAF8ED" transform="translate(455,841)"/>
<path d="M0 0 C2.13799448 2.8506593 3.98777034 5.49933022 5.75 8.5625 C6.19859375 9.32691406 6.6471875 10.09132813 7.109375 10.87890625 C8 13 8 13 7 16 C5.02 12.535 5.02 12.535 3 9 C2.67 16.92 2.34 24.84 2 33 C1.01 33.495 1.01 33.495 0 34 C0 22.78 0 11.56 0 0 Z " fill="#0A101C" transform="translate(215,844)"/>
<path d="M0 0 C1.21236328 0.01353516 1.21236328 0.01353516 2.44921875 0.02734375 C3.37154297 0.04474609 3.37154297 0.04474609 4.3125 0.0625 C4.3125 0.3925 4.3125 0.7225 4.3125 1.0625 C3.57644531 1.14886719 2.84039063 1.23523438 2.08203125 1.32421875 C-2.54756837 1.99083217 -5.94071506 2.56464337 -9.875 5.1875 C-11.7981693 8.23804441 -12.40151741 10.43626088 -12.1953125 14.05859375 C-11.30200664 17.58371611 -9.22688401 19.52311599 -6.6875 22.0625 C-9.125 21.25 -9.125 21.25 -11.6875 20.0625 C-12.0175 19.0725 -12.3475 18.0825 -12.6875 17.0625 C-16.15890452 17.82679774 -16.15890452 17.82679774 -17.6875 22.0625 C-18.6775 17.7725 -19.6675 13.4825 -20.6875 9.0625 C-17.6875 12.0625 -17.6875 12.0625 -16.6875 15.0625 C-16.45675781 14.38703125 -16.22601562 13.7115625 -15.98828125 13.015625 C-12.69860114 4.01776477 -12.69860114 4.01776477 -7.6875 1.0625 C-4.80538698 0.10179566 -2.98899956 -0.04331883 0 0 Z " fill="#0E131D" transform="translate(636.6875,838.9375)"/>
<path d="M0 0 C3.0625 0.1875 3.0625 0.1875 5.0625 2.1875 C5.3125 4.6875 5.3125 4.6875 5.0625 7.1875 C3.0625 9.1875 3.0625 9.1875 0.0625 9.5 C-0.9275 9.396875 -1.9175 9.29375 -2.9375 9.1875 C-4.9375 6.1875 -4.9375 6.1875 -4.625 3.5625 C-3.63731654 0.1505026 -3.65603948 0.23336422 0 0 Z " fill="#EFEBE0" transform="translate(350.9375,825.8125)"/>
<path d="M0 0 C8.58 0 17.16 0 26 0 C26 0.33 26 0.66 26 1 C20.82682579 2.06309567 15.87630664 2.11693938 10.625 2.0625 C9.79355469 2.05798828 8.96210937 2.05347656 8.10546875 2.04882812 C6.07028103 2.03713164 4.03513077 2.01919935 2 2 C2.01160156 2.79664063 2.02320313 3.59328125 2.03515625 4.4140625 C2.12478032 14.93848858 2.12478032 14.93848858 1 20 C0.67 20 0.34 20 0 20 C0 13.4 0 6.8 0 0 Z " fill="#F3F0E0" transform="translate(726,666)"/>
<path d="M0 0 C2.9375 0.1875 2.9375 0.1875 3.9375 1.1875 C4.125 4.125 4.125 4.125 3.9375 7.1875 C1.9375 9.1875 1.9375 9.1875 -0.5625 9.4375 C-3.0625 9.1875 -3.0625 9.1875 -5.0625 7.1875 C-5.3125 4.6875 -5.3125 4.6875 -5.0625 2.1875 C-3.0625 0.1875 -3.0625 0.1875 0 0 Z " fill="#F8F2E2" transform="translate(692.0625,825.8125)"/>
<path d="M0 0 C1.37562854 1.28965176 2.70766393 2.62689293 4 4 C4 4.66 4 5.32 4 6 C-6.56 6 -17.12 6 -28 6 C-28 5.01 -28 4.02 -28 3 C-18.76 2.67 -9.52 2.34 0 2 C0 1.34 0 0.68 0 0 Z " fill="#C8C2B4" transform="translate(404,625)"/>
<path d="M0 0 C0.99 0.66 1.98 1.32 3 2 C2 5 2 5 0 8 C-6.75 7.25 -6.75 7.25 -9 5 C-8.75 2.9375 -8.75 2.9375 -8 1 C-5.22899606 -0.38550197 -3.0665294 -0.1877467 0 0 Z " fill="#151F2D" transform="translate(640,847)"/>
<path d="M0 0 C0.350625 0.804375 0.70125 1.60875 1.0625 2.4375 C2.70007895 5.17716004 2.70007895 5.17716004 5.16015625 5.484375 C6.78358065 5.61815958 8.41090421 5.7116621 10.0390625 5.76171875 C10.68617188 5.84035156 11.33328125 5.91898438 12 6 C12.33 6.66 12.66 7.32 13 8 C10.87465341 7.85930804 8.74972471 7.71229079 6.625 7.5625 C5.44164062 7.48128906 4.25828125 7.40007813 3.0390625 7.31640625 C0 7 0 7 -2 6 C-2 6.66 -2 7.32 -2 8 C-3.65 7.67 -5.3 7.34 -7 7 C-7.33 5.35 -7.66 3.7 -8 2 C-2.25 0 -2.25 0 0 0 Z " fill="#E2DDD1" transform="translate(427,865)"/>
<path d="M0 0 C0.33 0 0.66 0 1 0 C1 1.65 1 3.3 1 5 C-7.91 5 -16.82 5 -26 5 C-26.33 6.32 -26.66 7.64 -27 9 C-27.38218767 7.34385343 -27.71395102 5.67542976 -28 4 C-27 3 -27 3 -24.40795898 2.88647461 C-23.28204346 2.89171143 -22.15612793 2.89694824 -20.99609375 2.90234375 C-19.78115234 2.90556641 -18.56621094 2.90878906 -17.31445312 2.91210938 C-16.03505859 2.92048828 -14.75566406 2.92886719 -13.4375 2.9375 C-12.15423828 2.94201172 -10.87097656 2.94652344 -9.54882812 2.95117188 C-6.36583978 2.96300455 -3.18294238 2.97948932 0 3 C0 2.01 0 1.02 0 0 Z " fill="#D6D4CE" transform="translate(617,857)"/>
<path d="M0 0 C1.34275169 0.98731742 2.67732273 1.98594743 4 3 C3.34 4.32 2.68 5.64 2 7 C-0.75 7.25 -0.75 7.25 -4 7 C-6.375 5 -6.375 5 -8 3 C-7.67 2.01 -7.34 1.02 -7 0 C-2.25 -1.125 -2.25 -1.125 0 0 Z " fill="#1D2E41" transform="translate(436,863)"/>
<path d="M0 0 C0.144375 0.598125 0.28875 1.19625 0.4375 1.8125 C0.8872439 3.56150404 1.42892341 5.28677023 2 7 C2.5775 6.7525 3.155 6.505 3.75 6.25 C4.4925 6.1675 5.235 6.085 6 6 C8.25 7.9375 8.25 7.9375 10 10 C7.69 10.33 5.38 10.66 3 11 C3.66 12.32 4.32 13.64 5 15 C1.63629679 13.60812281 -0.21906331 12.20568604 -2 9 C-2.41865457 4.89718519 -2.32579101 3.48868651 0 0 Z " fill="#EDE8DA" transform="translate(788,845)"/>
<path d="M0 0 C0.66 0.66 1.32 1.32 2 2 C-2.62 2.66 -7.24 3.32 -12 4 C-11.67 6.97 -11.34 9.94 -11 13 C-11.66 13 -12.32 13 -13 13 C-13.66 12.01 -14.32 11.02 -15 10 C-15.99 10.66 -16.98 11.32 -18 12 C-18 8 -18 8 -15.875 5.4375 C-10.73707989 1.0814373 -6.80565826 -0.65439022 0 0 Z " fill="#EAE5D7" transform="translate(383,840)"/>
<path d="M0 0 C0 0.33 0 0.66 0 1 C-0.9075 1.12375 -1.815 1.2475 -2.75 1.375 C-6.79304834 2.1525093 -9.09712721 3.09712721 -12 6 C-12.33 5.01 -12.66 4.02 -13 3 C-14.65 3.33 -16.3 3.66 -18 4 C-17.8125 2.125 -17.8125 2.125 -17 0 C-11.5225313 -3.22204041 -5.57265339 -2.70189255 0 0 Z " fill="#EEE8D7" transform="translate(645,842)"/>
<path d="M0 0 C1.31441913 1.9716287 2.58714134 3.97182015 3.8125 6 C6.12720758 9.17445611 7.48982258 10.33779899 11 12 C14.44536662 12.39865122 14.44536662 12.39865122 18.0625 12.25 C19.27035156 12.23453125 20.47820312 12.2190625 21.72265625 12.203125 C24.33413158 12.04126956 26.51711614 11.76777456 29 11 C26.41268789 13.83372278 24.46628278 14.8341845 20.58203125 15.2734375 C13.7174924 15.52516953 9.17950628 14.66764919 4 10 C0.92897863 6.23799883 0 4.8987475 0 0 Z " fill="#F8F6ED" transform="translate(267,863)"/>
<path d="M0 0 C0.8971875 0.309375 0.8971875 0.309375 1.8125 0.625 C1.008125 0.91375 0.20375 1.2025 -0.625 1.5 C-3.3201468 2.35762568 -3.3201468 2.35762568 -4.1875 4.625 C-2.20763918 4.51152381 -0.22858402 4.3839065 1.75 4.25 C3.40322266 4.14558594 3.40322266 4.14558594 5.08984375 4.0390625 C6.43755859 3.83410156 6.43755859 3.83410156 7.8125 3.625 C8.1425 2.965 8.4725 2.305 8.8125 1.625 C9.4725 3.275 10.1325 4.925 10.8125 6.625 C4.8725 6.625 -1.0675 6.625 -7.1875 6.625 C-4.24632353 -0.72794118 -4.24632353 -0.72794118 0 0 Z " fill="#0E1623" transform="translate(598.1875,848.375)"/>
<path d="M0 0 C0.33 0 0.66 0 1 0 C1.76595745 19.53191489 1.76595745 19.53191489 -3 28 C-3.99 28 -4.98 28 -6 28 C-5.52140759 26.39566191 -5.04210442 24.79153584 -4.5625 23.1875 C-4.29566406 22.29417969 -4.02882813 21.40085937 -3.75390625 20.48046875 C-3.19612127 18.64526945 -2.60655425 16.81966274 -2 15 C-1.34 15 -0.68 15 0 15 C0 10.05 0 5.1 0 0 Z " fill="#161D27" transform="translate(446,719)"/>
<path d="M0 0 C0.66 0 1.32 0 2 0 C2.33 0.66 2.66 1.32 3 2 C3.66 1.34 4.32 0.68 5 0 C8.125 0.375 8.125 0.375 11 1 C11 1.99 11 2.98 11 4 C9.35 3.67 7.7 3.34 6 3 C5.67 4.32 5.34 5.64 5 7 C2.36 6.34 -0.28 5.68 -3 5 C-3 4.01 -3 3.02 -3 2 C-2.01 2 -1.02 2 0 2 C0 1.34 0 0.68 0 0 Z " fill="#F1E9D8" transform="translate(637,857)"/>
<path d="M0 0 C2.64 0 5.28 0 8 0 C8.33 0.66 8.66 1.32 9 2 C6.69 2.66 4.38 3.32 2 4 C2 4.99 2 5.98 2 7 C0.35 7.33 -1.3 7.66 -3 8 C-3.66 6.68 -4.32 5.36 -5 4 C-4.0409375 3.8453125 -4.0409375 3.8453125 -3.0625 3.6875 C-2.381875 3.460625 -1.70125 3.23375 -1 3 C-0.67 2.01 -0.34 1.02 0 0 Z " fill="#EAE3D1" transform="translate(281,840)"/>
<path d="M0 0 C0.66 0.33 1.32 0.66 2 1 C1.34 1.66 0.68 2.32 0 3 C3.96 3 7.92 3 12 3 C12 2.01 12 1.02 12 0 C15 3.75 15 3.75 15 6 C9.06 6 3.12 6 -3 6 C-1 1 -1 1 0 0 Z " fill="#070F1D" transform="translate(374,849)"/>
<path d="M0 0 C0.66 1.65 1.32 3.3 2 5 C1.01 5 0.02 5 -1 5 C-1 5.66 -1 6.32 -1 7 C-4 8 -4 8 -7 7 C-7.6875 4.9375 -7.6875 4.9375 -8 3 C-2.25 0 -2.25 0 0 0 Z " fill="#F2ECDC" transform="translate(793,865)"/>
<path d="M0 0 C0.33 0 0.66 0 1 0 C1.49029622 7.23186925 1.49029622 7.23186925 -0.875 10.9375 C-3.79288343 13.76956333 -4.4591417 13.99067486 -8.625 14.0625 C-9.73875 14.041875 -10.8525 14.02125 -12 14 C-12 13.67 -12 13.34 -12 13 C-9.36 12.34 -6.72 11.68 -4 11 C-4 9.68 -4 8.36 -4 7 C-2.86932844 4.51656069 -1.43498939 2.33185776 0 0 Z " fill="#101620" transform="translate(566,871)"/>
<path d="M0 0 C1.155 0.33 2.31 0.66 3.5 1 C6.55152969 1.78188661 9.22831651 2.09221051 12.375 2 C13.57125 2 14.7675 2 16 2 C16.66 2.66 17.32 3.32 18 4 C14.29678381 5.85160809 10.04127136 5.46962786 6 5 C3.52013775 3.9302555 2.06961818 2.7973 0 1 C0 0.67 0 0.34 0 0 Z " fill="#EBE8DD" transform="translate(544,872)"/>
<path d="M0 0 C2.97 0.495 2.97 0.495 6 1 C6 2.32 6 3.64 6 5 C5 6 5 6 2.25 6.1875 C-0.96743924 6.00187851 -3.10756683 5.36114502 -6 4 C-5.401875 3.855625 -4.80375 3.71125 -4.1875 3.5625 C-2.43849596 3.1127561 -0.71322977 2.57107659 1 2 C0.67 1.34 0.34 0.68 0 0 Z " fill="#1C2D40" transform="translate(636,864)"/>
<path d="M0 0 C4.54300628 0.19795234 8.04994941 0.4260111 12 2.8125 C13.98382135 4.9823046 14.69095593 6.11558865 15 9 C14.01 9.495 14.01 9.495 13 10 C13 9.01 13 8.02 13 7 C12.01 7 11.02 7 10 7 C9.67 5.68 9.34 4.36 9 3 C5.7 2.67 2.4 2.34 -1 2 C-0.67 1.34 -0.34 0.68 0 0 Z " fill="#E3E0D7" transform="translate(763,840)"/>
<path d="M0 0 C0.99 0.66 1.98 1.32 3 2 C2.40138258 4.35171131 1.73075648 6.6859378 1 9 C0.01 9.495 0.01 9.495 -1 10 C-1.99 9.01 -2.98 8.02 -4 7 C-3.34 6.01 -2.68 5.02 -2 4 C-2.66 3.67 -3.32 3.34 -4 3 C-2.68 2.01 -1.36 1.02 0 0 Z " fill="#EDE6D4" transform="translate(564,865)"/>
<path d="M0 0 C3 0 3 0 4.38671875 1.3125 C5.59114583 2.875 6.79557292 4.4375 8 6 C4.18243176 7.37432457 0.92744671 6.67975039 -3 6 C-3 5.01 -3 4.02 -3 3 C-2.01 3 -1.02 3 0 3 C0 2.01 0 1.02 0 0 Z " fill="#232F40" transform="translate(641,850)"/>
<path d="M0 0 C1.4540625 0.0309375 1.4540625 0.0309375 2.9375 0.0625 C2.9375 2.3725 2.9375 4.6825 2.9375 7.0625 C0.5625 6.875 0.5625 6.875 -2.0625 6.0625 C-3.375 3.5 -3.375 3.5 -4.0625 1.0625 C-3.0625 0.0625 -3.0625 0.0625 0 0 Z " fill="#F9F2DE" transform="translate(351.0625,825.9375)"/>
<path d="M0 0 C2.28783297 0.91513319 3.73449728 1.65484646 5.25 3.625 C6.35953628 7.13853155 6.12256679 10.32299618 6 14 C5.34 14 4.68 14 4 14 C4 11.36 4 8.72 4 6 C3.34 6 2.68 6 2 6 C0.375 3.5 0.375 3.5 -1 1 C-0.67 0.67 -0.34 0.34 0 0 Z " fill="#272C34" transform="translate(669,691)"/>
<path d="M0 0 C0 3 0 3 -1.8125 4.875 C-2.534375 5.57625 -3.25625 6.2775 -4 7 C-4.474375 7.9075 -4.94875 8.815 -5.4375 9.75 C-6.2109375 10.86375 -6.2109375 10.86375 -7 12 C-9.6875 12.3125 -9.6875 12.3125 -12 12 C-8 8 -4 4 0 0 Z " fill="#0D1622" transform="translate(460,766)"/>
<path d="M0 0 C0.66 0.33 1.32 0.66 2 1 C2.625 3.0625 2.625 3.0625 3 5 C2.34 5 1.68 5 1 5 C0.67 5.66 0.34 6.32 0 7 C-2.97 6.505 -2.97 6.505 -6 6 C-3.375 1.125 -3.375 1.125 0 0 Z " fill="#F1EAD8" transform="translate(803,856)"/>
<path d="M0 0 C1.32 0 2.64 0 4 0 C4.33 0.66 4.66 1.32 5 2 C7.57437581 2.91280138 7.57437581 2.91280138 10.5625 3.625 C11.57441406 3.88539063 12.58632813 4.14578125 13.62890625 4.4140625 C14.80259766 4.70410156 14.80259766 4.70410156 16 5 C16 5.66 16 6.32 16 7 C9.93267948 5.96232949 4.5626148 4.66038099 -1 2 C-0.67 1.34 -0.34 0.68 0 0 Z " fill="#E8E6DD" transform="translate(381,781)"/>
<path d="M0 0 C2.79828356 0.38597015 3.8205884 0.80136573 5.75 2.9375 C7 5 7 5 7 7 C4.69 7.66 2.38 8.32 0 9 C-0.99 7.35 -1.98 5.7 -3 4 C-0.36 4.66 2.28 5.32 5 6 C3.35 4.02 1.7 2.04 0 0 Z " fill="#FAF8EF" transform="translate(441,843)"/>
<path d="M0 0 C0.66 0.33 1.32 0.66 2 1 C1.34 1.66 0.68 2.32 0 3 C0.66 3.33 1.32 3.66 2 4 C1.79375 4.53625 1.5875 5.0725 1.375 5.625 C0.8685253 8.83267308 1.84599775 11.01317066 3 14 C-0.28465896 11.20803989 -2.01321958 7.76803183 -4 4 C-4 3.34 -4 2.68 -4 2 C-2.125 0.9375 -2.125 0.9375 0 0 Z " fill="#0E151F" transform="translate(311,739)"/>
<path d="M0 0 C0.99 0 1.98 0 3 0 C3.10824843 1.6026782 3.18570645 3.20745748 3.25 4.8125 C3.29640625 5.70582031 3.3428125 6.59914063 3.390625 7.51953125 C3 10 3 10 0.984375 11.82421875 C0.32953125 12.21222656 -0.3253125 12.60023438 -1 13 C-1.66 12.67 -2.32 12.34 -3 12 C-2.690625 11.505 -2.38125 11.01 -2.0625 10.5 C-0.58355618 7.02013219 -0.37597149 3.75971491 0 0 Z " fill="#293645" transform="translate(449,864)"/>
<path d="M0 0 C0.33 0 0.66 0 1 0 C1.19412181 1.47831221 1.38012131 2.95769316 1.5625 4.4375 C1.66691406 5.26121094 1.77132812 6.08492187 1.87890625 6.93359375 C1.91886719 7.61550781 1.95882812 8.29742188 2 9 C1 10 1 10 -1.28515625 10.09765625 C-2.65994141 10.08025391 -2.65994141 10.08025391 -4.0625 10.0625 C-4.98160156 10.05347656 -5.90070312 10.04445313 -6.84765625 10.03515625 C-7.55792969 10.02355469 -8.26820313 10.01195312 -9 10 C-9 9.34 -9 8.68 -9 8 C-6.03 8 -3.06 8 0 8 C0 5.36 0 2.72 0 0 Z " fill="#121B2A" transform="translate(756,869)"/>
<path d="M0 0 C3.3 0 6.6 0 10 0 C10 2.31 10 4.62 10 7 C9.34 6.67 8.68 6.34 8 6 C8 4.68 8 3.36 8 2 C5.36 2 2.72 2 0 2 C0 1.34 0 0.68 0 0 Z " fill="#E7E3D6" transform="translate(671,841)"/>
<path d="M0 0 C-0.33 0.66 -0.66 1.32 -1 2 C-3.88211302 2.96070434 -5.69850044 3.10581883 -8.6875 3.0625 C-9.89986328 3.04896484 -9.89986328 3.04896484 -11.13671875 3.03515625 C-12.05904297 3.01775391 -12.05904297 3.01775391 -13 3 C-13 2.34 -13 1.68 -13 1 C-8.60563789 0.14256349 -4.47427924 -0.08948558 0 0 Z " fill="#ECE9DF" transform="translate(519,874)"/>
<path d="M0 0 C1.485 0.99 1.485 0.99 3 2 C4.65549531 2.38499891 6.3222433 2.72793135 8 3 C8 2.34 8 1.68 8 1 C10.97 1.495 10.97 1.495 14 2 C12.9375 3.5 12.9375 3.5 11 5 C7.23373911 5.41086482 4.89465675 5.50467817 1.5625 3.625 C0 2 0 2 0 0 Z " fill="#0C111C" transform="translate(549,864)"/>
<path d="M0 0 C3.96 0 7.92 0 12 0 C10.68 0.33 9.36 0.66 8 1 C8 1.66 8 2.32 8 3 C5.36 3 2.72 3 0 3 C0 2.01 0 1.02 0 0 Z " fill="#ECE4D5" transform="translate(537,765)"/>
<path d="M0 0 C2.97 0 5.94 0 9 0 C9.33 1.65 9.66 3.3 10 5 C9.34 4.34 8.68 3.68 8 3 C6.01178687 2.60235737 4.01055661 2.26224651 2 2 C1.67 2.66 1.34 3.32 1 4 C0.67 2.68 0.34 1.36 0 0 Z " fill="#F8F6EA" transform="translate(305,841)"/>
<path d="M0 0 C0.66 0.33 1.32 0.66 2 1 C1 4 1 4 -1 5 C-1.46523063 6.89533342 -1.46523063 6.89533342 -1.625 9.0625 C-1.74875 10.361875 -1.8725 11.66125 -2 13 C-2.33 13 -2.66 13 -3 13 C-3 9.04 -3 5.08 -3 1 C-2.01 0.67 -1.02 0.34 0 0 Z " fill="#1F2F41" transform="translate(784,865)"/>
<path d="M0 0 C0 0.66 0 1.32 0 2 C-2.25 2.6875 -2.25 2.6875 -5 3 C-7.3125 1.5625 -7.3125 1.5625 -9 0 C-5.93109813 -1.53445094 -3.29905734 -0.54984289 0 0 Z " fill="#EAE5D6" transform="translate(433,875)"/>
<path d="M0 0 C1.5 1.375 1.5 1.375 3 3 C3 3.66 3 4.32 3 5 C-2.28 4.67 -7.56 4.34 -13 4 C-13 3.67 -13 3.34 -13 3 C-6.565 2.505 -6.565 2.505 0 2 C0 1.34 0 0.68 0 0 Z " fill="#000617" transform="translate(606,850)"/>
<path d="M0 0 C2.58347022 1.29173511 2.94936092 2.34086037 4 5 C4.1953125 7.359375 4.1953125 7.359375 4.125 9.75 C4.10695313 10.54921875 4.08890625 11.3484375 4.0703125 12.171875 C4.03550781 13.07679688 4.03550781 13.07679688 4 14 C3.67 14 3.34 14 3 14 C2.49528803 12.23050388 1.99639315 10.45934777 1.5 8.6875 C1.2215625 7.70136719 0.943125 6.71523438 0.65625 5.69921875 C0 3 0 3 0 0 Z " fill="#10141D" transform="translate(325,687)"/>
<path d="M0 0 C0.33 0.66 0.66 1.32 1 2 C-1.31 2.66 -3.62 3.32 -6 4 C-6.99 3.01 -7.98 2.02 -9 1 C-5.92677456 0.08941469 -3.19902639 -0.08886184 0 0 Z " fill="#EBE5D5" transform="translate(522,889)"/>
<path d="M0 0 C0.99 0.33 1.98 0.66 3 1 C2.01 2.98 1.02 4.96 0 7 C-0.99 6.67 -1.98 6.34 -3 6 C-1.125 1.125 -1.125 1.125 0 0 Z " fill="#1C2632" transform="translate(506,850)"/>
<path d="M0 0 C1.65 0 3.3 0 5 0 C5.66 1.32 6.32 2.64 7 4 C4.03 3.505 4.03 3.505 1 3 C0.67 2.01 0.34 1.02 0 0 Z " fill="#FAEFD7" transform="translate(439,845)"/>
<path d="M0 0 C-0.33 1.65 -0.66 3.3 -1 5 C-2.32 4.67 -3.64 4.34 -5 4 C-5 3.01 -5 2.02 -5 1 C-3 0 -3 0 0 0 Z " fill="#FAF3E2" transform="translate(426,866)"/>
<path d="M0 0 C1.98 0 3.96 0 6 0 C6 0.99 6 1.98 6 3 C2.25 4.125 2.25 4.125 0 3 C0 2.01 0 1.02 0 0 Z " fill="#16273B" transform="translate(431,850)"/>
<path d="M0 0 C2.31 0 4.62 0 7 0 C6.67 1.65 6.34 3.3 6 5 C5.67 4.01 5.34 3.02 5 2 C3.35 2 1.7 2 0 2 C0 1.34 0 0.68 0 0 Z " fill="#F6F5E8" transform="translate(749,841)"/>
<path d="M0 0 C2.31 0 4.62 0 7 0 C7 0.66 7 1.32 7 2 C5.35 2 3.7 2 2 2 C1.67 2.99 1.34 3.98 1 5 C0.67 3.35 0.34 1.7 0 0 Z " fill="#F8F6EA" transform="translate(523,841)"/>
<path d="M0 0 C2.31 0.33 4.62 0.66 7 1 C7 1.66 7 2.32 7 3 C4.6875 3.625 4.6875 3.625 2 4 C1.01 3.34 0.02 2.68 -1 2 C-0.67 1.34 -0.34 0.68 0 0 Z " fill="#ECE4D3" transform="translate(593,874)"/>
<path d="M0 0 C0.66 0.33 1.32 0.66 2 1 C0.515 6.445 0.515 6.445 -1 12 C-1.33 12 -1.66 12 -2 12 C-2.21278058 7.53160785 -1.59138085 4.17737474 0 0 Z " fill="#243547" transform="translate(715,850)"/>
<path d="M0 0 C0.99 0.33 1.98 0.66 3 1 C3 2.65 3 4.3 3 6 C2.01 6.495 2.01 6.495 1 7 C0.01 6.01 -0.98 5.02 -2 4 C-1.01 3.67 -0.02 3.34 1 3 C0.67 2.01 0.34 1.02 0 0 Z " fill="#EEE6D3" transform="translate(516,843)"/>
</svg>
