<svg version="1.1" id="Layer_1" xmlns="http://www.w3.org/2000/svg" xmlns:xlink="http://www.w3.org/1999/xlink" x="0px" y="0px"
	 width="100%" viewBox="0 0 397 397" enable-background="new 0 0 397 397" xml:space="preserve">
<path fill="#18283C" opacity="1.000000" stroke="none" 
	d="
M398.000000,206.000000 
	C398.000000,269.957336 398.000000,333.914703 398.000000,397.936035 
	C265.666687,397.936035 133.333344,397.936035 1.000000,397.936035 
	C1.000000,375.574341 1.000000,353.255829 1.316468,330.653259 
	C4.565886,339.201904 7.630623,347.993774 10.382935,356.882385 
	C12.066110,362.318146 15.652485,365.333679 21.069738,365.937195 
	C26.502991,366.542572 32.002453,366.965546 37.461182,366.860382 
	C63.860458,366.351807 81.225647,351.134888 96.714653,329.923157 
	C91.812874,325.522064 86.976585,321.443909 82.453331,317.043945 
	C77.968033,312.680878 73.798088,307.993591 69.229927,303.174316 
	C67.630905,305.049744 66.468330,306.413391 65.305588,307.776917 
	C56.977913,317.542877 46.943222,325.351685 34.197525,327.196869 
	C23.320877,328.771454 12.079846,327.829041 1.000000,328.000000 
	C1.000000,219.052292 1.000000,110.104576 1.000000,1.078431 
	C133.217529,1.078431 265.435120,1.078431 398.000000,1.078431 
	C398.000000,63.353798 398.000000,125.708237 397.661865,188.283432 
	C396.426056,181.244812 396.023132,173.883820 394.556152,166.741379 
	C373.919952,66.269943 281.464172,18.709318 196.749771,30.560572 
	C157.825424,36.005955 125.469177,53.849346 99.044777,83.137108 
	C60.996243,125.308609 46.130306,174.241043 56.373398,229.949341 
	C71.941216,314.616699 148.667358,381.067993 252.253296,368.641083 
	C327.284576,359.639801 386.125916,296.752533 395.199646,225.497360 
	C396.028931,218.984970 397.061737,212.498505 398.000000,206.000000 
z"/>
<path fill="#E44F34" opacity="1.000000" stroke="none" 
	d="
M398.000000,205.532394 
	C397.061737,212.498505 396.028931,218.984970 395.199646,225.497360 
	C386.125916,296.752533 327.284576,359.639801 252.253296,368.641083 
	C148.667358,381.067993 71.941216,314.616699 56.373398,229.949341 
	C46.130306,174.241043 60.996243,125.308609 99.044777,83.137108 
	C125.469177,53.849346 157.825424,36.005955 196.749771,30.560572 
	C281.464172,18.709318 373.919952,66.269943 394.556152,166.741379 
	C396.023132,173.883820 396.426056,181.244812 397.661865,188.752090 
	C398.000000,194.354935 398.000000,199.709854 398.000000,205.532394 
M331.160706,132.123215 
	C322.809387,129.861023 314.355560,129.410263 305.960510,131.521698 
	C287.116760,136.261047 273.229553,154.224854 272.392029,174.599747 
	C271.598358,193.907776 284.443878,212.656876 302.762054,218.927399 
	C326.165894,226.938812 352.865417,214.017105 360.836121,190.971054 
	C370.597931,162.746216 352.185638,138.371689 331.160706,132.123215 
M318.231934,257.328705 
	C313.140564,252.394287 308.711792,246.403046 302.836334,242.719223 
	C283.506897,230.599960 259.185059,234.824280 244.455124,251.884949 
	C228.309189,270.585632 231.904175,295.798096 243.734940,310.433380 
	C259.063904,329.396088 285.383972,332.206787 305.801758,318.472015 
	C324.556152,305.856262 329.440277,272.766968 318.231934,257.328705 
M213.160339,261.439362 
	C212.420898,260.137726 211.743362,258.796112 210.932755,257.540405 
	C198.222809,237.851257 173.316238,230.486206 152.670166,240.294250 
	C132.497345,249.877502 121.602585,273.707916 128.033676,294.182373 
	C136.077805,319.792236 162.631500,333.201355 187.218750,324.069733 
	C212.108170,314.825928 224.075363,286.627869 213.160339,261.439362 
M145.775467,131.485931 
	C137.511581,129.114426 129.307709,129.717697 121.173218,132.090912 
	C97.942810,138.868271 84.120216,160.952393 88.687637,183.925461 
	C93.476151,208.010574 114.612717,223.660217 138.857727,221.071671 
	C158.777557,218.944916 175.505524,201.994766 177.885239,181.525787 
	C180.498383,159.049164 167.969910,139.160065 145.775467,131.485931 
M185.682373,127.727089 
	C195.335754,143.996017 209.032822,152.527313 228.530426,151.341034 
	C247.980515,150.157623 264.111176,137.156845 269.493073,117.546577 
	C275.264008,96.518951 264.973389,78.126732 250.928421,68.525093 
	C233.632629,56.701096 211.626450,59.256046 195.377655,72.796921 
	C180.837357,84.914024 175.941605,111.690277 185.682373,127.727089 
M220.759460,177.069214 
	C219.057266,177.720001 217.279633,178.222900 215.665527,179.046341 
	C207.260895,183.334000 203.212021,190.100906 203.867569,199.664581 
	C204.455658,208.244080 208.197769,214.895447 216.353699,217.789688 
	C224.906616,220.824799 233.348801,220.478607 240.402939,213.457703 
	C245.987335,207.899597 248.364899,196.166962 245.097412,189.391739 
	C240.258804,179.358734 232.843002,175.436981 220.759460,177.069214 
z"/>
<path fill="#E34F34" opacity="1.000000" stroke="none" 
	d="
M1.000000,328.333313 
	C12.079846,327.829041 23.320877,328.771454 34.197525,327.196869 
	C46.943222,325.351685 56.977913,317.542877 65.305588,307.776917 
	C66.468330,306.413391 67.630905,305.049744 69.229927,303.174316 
	C73.798088,307.993591 77.968033,312.680878 82.453331,317.043945 
	C86.976585,321.443909 91.812874,325.522064 96.714653,329.923157 
	C81.225647,351.134888 63.860458,366.351807 37.461182,366.860382 
	C32.002453,366.965546 26.502991,366.542572 21.069738,365.937195 
	C15.652485,365.333679 12.066110,362.318146 10.382935,356.882385 
	C7.630623,347.993774 4.565886,339.201904 1.316468,330.184631 
	C1.000000,329.555542 1.000000,329.111115 1.000000,328.333313 
z"/>
<path fill="#18283C" opacity="1.000000" stroke="none" 
	d="
M331.549622,132.237061 
	C352.185638,138.371689 370.597931,162.746216 360.836121,190.971054 
	C352.865417,214.017105 326.165894,226.938812 302.762054,218.927399 
	C284.443878,212.656876 271.598358,193.907776 272.392029,174.599747 
	C273.229553,154.224854 287.116760,136.261047 305.960510,131.521698 
	C314.355560,129.410263 322.809387,129.861023 331.549622,132.237061 
z"/>
<path fill="#18283C" opacity="1.000000" stroke="none" 
	d="
M318.442841,257.626892 
	C329.440277,272.766968 324.556152,305.856262 305.801758,318.472015 
	C285.383972,332.206787 259.063904,329.396088 243.734940,310.433380 
	C231.904175,295.798096 228.309189,270.585632 244.455124,251.884949 
	C259.185059,234.824280 283.506897,230.599960 302.836334,242.719223 
	C308.711792,246.403046 313.140564,252.394287 318.442841,257.626892 
z"/>
<path fill="#18283C" opacity="1.000000" stroke="none" 
	d="
M213.338135,261.772827 
	C224.075363,286.627869 212.108170,314.825928 187.218750,324.069733 
	C162.631500,333.201355 136.077805,319.792236 128.033676,294.182373 
	C121.602585,273.707916 132.497345,249.877502 152.670166,240.294250 
	C173.316238,230.486206 198.222809,237.851257 210.932755,257.540405 
	C211.743362,258.796112 212.420898,260.137726 213.338135,261.772827 
z"/>
<path fill="#18283C" opacity="1.000000" stroke="none" 
	d="
M146.156921,131.624084 
	C167.969910,139.160065 180.498383,159.049164 177.885239,181.525787 
	C175.505524,201.994766 158.777557,218.944916 138.857727,221.071671 
	C114.612717,223.660217 93.476151,208.010574 88.687637,183.925461 
	C84.120216,160.952393 97.942810,138.868271 121.173218,132.090912 
	C129.307709,129.717697 137.511581,129.114426 146.156921,131.624084 
z"/>
<path fill="#18283C" opacity="1.000000" stroke="none" 
	d="
M185.483932,127.413040 
	C175.941605,111.690277 180.837357,84.914024 195.377655,72.796921 
	C211.626450,59.256046 233.632629,56.701096 250.928421,68.525093 
	C264.973389,78.126732 275.264008,96.518951 269.493073,117.546577 
	C264.111176,137.156845 247.980515,150.157623 228.530426,151.341034 
	C209.032822,152.527313 195.335754,143.996017 185.483932,127.413040 
z"/>
<path fill="#19283C" opacity="1.000000" stroke="none" 
	d="
M221.152481,177.002914 
	C232.843002,175.436981 240.258804,179.358734 245.097412,189.391739 
	C248.364899,196.166962 245.987335,207.899597 240.402939,213.457703 
	C233.348801,220.478607 224.906616,220.824799 216.353699,217.789688 
	C208.197769,214.895447 204.455658,208.244080 203.867569,199.664581 
	C203.212021,190.100906 207.260895,183.334000 215.665527,179.046341 
	C217.279633,178.222900 219.057266,177.720001 221.152481,177.002914 
z"/>
</svg>